{"glyphs":{"0":{"ha":685,"x_min":63,"x_max":625,"o":"m 149 18 q 74 269 88 101 q 82 554 63 385 q 113 733 93 646 q 122 838 88 785 q 213 913 157 890 q 340 924 276 936 q 456 869 403 911 q 586 672 549 797 q 614 415 624 547 q 553 172 604 288 q 403 -26 488 25 q 267 -52 342 -64 q 149 18 192 -40 m 431 832 q 342 888 392 871 q 247 888 293 906 q 218 872 232 882 q 232 871 225 872 q 273 853 257 867 q 283 818 289 840 q 219 283 214 525 q 261 68 224 153 q 304 13 283 18 q 369 49 329 6 q 479 229 432 113 q 528 432 519 326 q 517 642 538 539 q 431 832 490 772 z "},"1":{"ha":513,"x_min":33,"x_max":449,"o":"m 101 728 q 104 850 33 736 q 172 935 142 911 q 277 967 218 974 q 372 911 336 960 q 407 827 396 876 q 417 733 418 778 q 417 642 417 689 q 396 338 415 581 q 385 189 388 228 q 384 114 385 165 q 382 35 383 63 q 410 38 397 36 q 442 25 433 43 q 425 8 449 13 q 363 4 399 4 q 307 -8 340 -10 q 254 8 274 -7 q 193 0 219 7 q 158 7 174 -7 q 167 25 149 17 q 238 38 199 36 q 257 314 229 126 q 283 461 264 353 q 312 646 303 569 q 321 794 321 722 q 319 825 321 810 q 315 861 318 840 q 305 897 311 882 q 289 924 299 911 q 265 937 279 938 q 229 928 250 936 q 157 846 193 907 q 131 796 142 822 q 121 772 122 778 q 119 765 119 771 q 118 756 119 760 q 114 754 117 753 q 131 738 135 750 q 101 728 126 725 z "},"2":{"ha":633,"x_min":68,"x_max":569,"o":"m 149 17 q 133 21 147 18 q 111 26 119 24 q 92 33 103 29 q 75 44 81 38 q 69 60 69 51 q 76 80 69 69 q 91 99 82 90 q 109 114 100 107 q 126 125 118 121 q 261 139 188 158 q 271 153 267 146 q 357 350 321 231 q 404 563 392 468 q 407 785 417 676 q 343 931 397 899 q 253 925 300 956 q 182 847 206 894 q 171 743 154 790 q 195 705 178 721 q 235 689 213 689 q 253 683 247 689 q 253 669 258 676 q 235 663 247 663 q 138 708 172 660 q 118 815 104 756 q 184 923 133 879 q 299 969 235 967 q 392 949 351 972 q 458 889 433 925 q 497 802 482 853 q 519 706 513 751 q 525 615 525 661 q 488 339 526 488 q 386 103 447 188 q 367 81 376 92 q 383 65 374 74 q 402 49 393 57 q 419 33 411 40 q 513 24 483 -21 q 551 31 522 39 q 561 15 568 25 q 490 -25 538 -21 q 407 -6 442 -29 q 336 51 385 8 q 290 25 314 35 q 149 17 228 -3 m 150 94 q 142 85 144 90 q 135 74 139 81 q 129 65 132 68 q 140 65 132 65 q 151 64 147 64 q 240 113 199 68 q 231 114 235 114 q 150 94 185 124 z "},"3":{"ha":586,"x_min":61,"x_max":525,"o":"m 160 -4 q 86 69 110 19 q 72 172 63 118 q 103 203 76 193 q 158 208 129 214 q 193 182 186 201 q 206 138 196 174 q 226 85 215 103 q 250 61 236 69 q 257 57 256 57 q 260 57 258 57 q 263 58 261 58 q 264 58 264 58 l 276 63 q 310 86 293 71 q 360 171 342 118 q 347 381 392 265 q 297 467 326 436 q 265 492 282 482 q 260 494 263 493 q 253 496 257 494 q 247 499 250 497 l 246 500 q 225 503 238 500 q 196 512 213 506 q 174 528 179 518 q 176 551 169 538 q 268 710 238 643 q 303 872 311 804 q 285 901 299 894 q 253 901 271 908 q 220 882 236 893 q 194 858 204 871 q 165 813 178 839 q 147 757 153 788 q 157 706 140 726 q 142 690 164 694 q 111 694 118 685 q 96 738 97 714 q 103 788 94 763 q 123 834 111 813 q 149 874 135 856 q 235 937 183 917 q 338 939 288 957 q 392 892 372 925 q 413 824 411 860 q 411 751 415 788 q 335 563 397 671 q 468 444 422 529 q 515 297 506 376 q 497 142 524 218 q 406 21 469 67 q 286 -24 353 -18 q 160 -4 219 -31 m 260 57 l 258 57 q 263 57 261 57 q 260 57 260 57 z "},"4":{"ha":576,"x_min":68,"x_max":508,"o":"m 204 317 q 134 315 174 306 q 79 353 94 324 q 73 370 75 361 q 70 387 71 379 q 70 407 69 394 q 72 424 71 419 q 74 443 72 429 q 78 460 76 457 q 135 707 88 521 q 163 825 146 747 q 167 854 164 835 q 173 885 171 874 q 181 913 175 897 q 194 940 186 929 q 219 953 197 951 q 249 944 242 954 q 269 793 281 906 q 246 643 263 729 q 217 488 222 522 q 206 410 208 440 q 204 401 206 407 q 201 388 203 394 q 200 375 200 381 q 215 378 210 376 q 268 394 236 383 q 336 421 311 410 q 336 438 336 424 q 356 888 326 679 q 431 931 361 929 q 482 919 456 931 q 507 888 508 908 q 490 443 489 615 q 496 224 490 342 q 496 0 504 68 q 454 -27 493 -25 q 407 -7 415 -29 q 339 368 351 125 q 204 317 272 335 z "},"5":{"ha":660,"x_min":64,"x_max":604,"o":"m 118 540 q 69 597 64 556 q 97 683 72 615 q 129 760 108 714 q 185 863 154 815 q 157 869 169 864 q 101 940 124 885 q 118 958 96 954 q 151 949 144 963 q 181 899 168 907 q 206 892 190 892 q 226 919 217 907 q 266 933 238 932 q 307 921 294 933 q 371 942 350 936 q 406 949 388 946 q 444 954 424 953 q 482 952 464 956 q 516 942 500 949 q 544 920 532 935 q 560 885 556 906 q 546 871 563 875 q 504 881 517 864 l 503 885 q 390 911 490 940 q 342 897 374 907 q 308 885 311 886 q 257 740 304 874 q 229 658 253 729 q 224 644 229 656 q 218 628 219 633 q 242 629 229 629 q 340 622 293 633 q 496 540 433 601 q 587 363 569 469 q 560 160 604 257 q 422 17 515 63 q 343 -8 386 0 q 257 -14 300 -17 q 178 12 214 -11 q 126 76 143 35 q 115 231 101 139 q 165 393 129 326 q 232 418 181 421 q 269 408 249 417 q 285 383 289 399 q 269 323 281 367 q 251 248 257 279 q 243 185 244 217 q 254 100 242 131 q 271 69 261 81 q 273 67 271 69 q 277 64 275 65 q 279 63 279 63 q 297 64 285 61 q 326 75 311 68 q 378 115 353 89 q 443 253 431 169 q 433 404 457 331 q 349 519 408 478 q 315 539 331 532 q 294 546 303 543 q 233 546 271 551 q 210 541 228 544 q 186 537 193 538 q 165 535 179 536 q 140 535 151 533 q 118 540 129 536 z "},"6":{"ha":525,"x_min":68,"x_max":461,"o":"m 235 -43 q 150 3 185 -32 q 99 88 115 38 q 76 186 82 139 q 69 285 69 233 q 143 651 71 471 q 231 815 175 735 q 365 954 301 918 q 412 958 378 964 q 436 931 446 953 q 392 859 424 904 q 350 797 360 814 q 283 653 317 740 q 217 374 233 525 q 208 225 207 279 q 300 250 251 249 q 390 227 349 251 q 447 154 432 203 q 451 75 461 115 q 413 4 442 35 q 331 -42 381 -29 q 235 -43 282 -54 m 304 208 q 214 160 263 208 q 242 72 222 111 q 317 14 275 6 q 374 51 351 21 q 394 118 396 82 q 367 182 393 156 q 304 208 342 208 z "},"7":{"ha":589,"x_min":64,"x_max":524,"o":"m 114 839 q 79 838 103 831 q 71 850 65 840 q 167 932 107 899 q 283 957 228 965 q 375 902 343 949 q 415 790 407 856 q 415 528 431 671 q 401 422 411 481 q 497 428 450 426 q 517 421 511 428 q 517 408 522 414 q 497 400 511 401 q 397 393 447 397 q 375 271 392 363 q 363 208 371 253 q 350 140 354 164 q 343 99 347 129 q 335 48 339 69 q 324 7 331 26 q 281 -22 315 -14 q 215 -18 247 -29 q 181 18 182 -7 q 181 56 179 35 q 186 90 183 76 q 194 129 189 104 q 201 164 200 154 q 232 303 214 225 q 249 374 242 346 q 242 372 247 372 q 235 371 238 371 q 208 382 214 367 q 219 396 206 390 q 224 396 221 396 q 254 403 238 400 q 289 583 278 507 q 306 729 301 665 q 301 865 313 829 q 272 914 293 899 q 221 918 250 929 q 197 906 208 913 q 173 890 186 900 q 154 876 160 881 q 133 856 149 871 q 114 839 117 842 z "},"8":{"ha":525,"x_min":50,"x_max":461,"o":"m 196 389 q 144 451 164 425 q 105 515 125 476 q 76 589 85 553 q 106 808 51 704 q 181 899 135 863 q 283 943 228 936 q 397 918 353 950 q 444 832 435 892 q 421 589 460 739 q 388 481 410 551 q 358 383 367 411 q 378 356 369 368 q 456 124 458 243 q 447 53 456 86 q 414 -10 438 19 q 356 -51 390 -39 q 249 -60 307 -71 q 160 -6 192 -49 q 132 192 106 65 q 214 367 157 315 q 196 389 206 376 m 321 -21 q 344 68 350 4 q 321 186 339 128 q 240 333 299 258 q 200 250 219 304 q 178 118 176 185 q 206 10 178 50 q 258 -29 225 -18 q 321 -21 292 -40 m 211 763 q 243 546 189 660 q 317 435 265 500 q 374 638 364 589 q 385 783 390 717 q 326 892 378 878 q 257 857 294 900 q 211 763 224 819 z "},"9":{"ha":593,"x_min":63,"x_max":533,"o":"m 178 557 q 90 588 119 556 q 71 672 64 618 q 169 842 86 776 q 360 906 253 908 q 404 923 369 924 q 446 904 439 922 q 514 601 492 789 q 517 310 532 450 q 492 171 510 239 q 440 40 468 81 q 369 -15 413 3 q 279 -26 326 -33 q 163 60 201 -15 q 164 83 157 72 q 181 99 171 93 q 204 107 192 104 q 251 110 222 114 q 293 90 281 107 q 301 83 296 88 q 336 172 315 106 q 375 400 367 265 q 375 650 381 501 q 372 700 374 671 q 340 654 357 675 q 178 557 269 558 m 279 58 q 283 63 281 58 q 279 58 281 60 m 133 701 q 140 606 115 635 q 225 610 167 574 q 297 685 264 633 q 340 776 324 724 q 360 847 357 825 q 357 876 358 863 q 179 790 247 876 q 133 701 147 751 z "},"\u0000":{"ha":0,"x_min":0,"x_max":0,"o":""},"\n":{"ha":0,"x_min":0,"x_max":0,"o":""},"\r":{"ha":0,"x_min":0,"x_max":0,"o":""}," ":{"ha":432,"x_min":0,"x_max":0,"o":""},"!":{"ha":285,"x_min":67,"x_max":217,"o":"m 213 524 q 215 296 215 410 q 201 67 214 144 q 167 35 197 44 q 106 34 136 25 q 75 67 76 43 q 71 296 68 133 q 74 409 72 335 q 76 519 75 483 q 82 743 76 531 q 86 857 82 774 q 97 971 90 940 q 134 994 101 990 q 172 978 167 997 q 201 753 192 915 q 213 524 210 622 m 179 -17 q 196 -43 190 -24 q 201 -103 204 -71 q 150 -133 200 -132 q 114 -124 129 -133 q 99 -103 97 -114 q 101 -36 99 -103 q 124 -12 101 -19 q 125 -12 124 -12 q 126 -12 126 -12 q 179 -17 154 -3 z "},"\"":{"ha":363,"x_min":65,"x_max":294,"o":"m 96 983 q 146 998 108 1001 q 185 969 183 994 q 175 924 186 958 q 158 878 164 888 q 117 861 144 861 q 75 878 83 861 q 72 934 65 904 q 96 983 79 964 m 293 972 q 279 921 294 958 q 250 874 265 885 q 225 866 240 865 q 201 878 210 867 q 194 928 192 892 q 206 979 196 964 q 253 999 217 999 q 293 972 290 999 z "},"#":{"ha":699,"x_min":67,"x_max":631,"o":"m 582 735 q 544 469 560 603 q 544 466 544 468 q 544 463 544 464 q 547 463 544 463 q 551 463 550 463 q 578 447 578 461 q 551 432 578 432 q 546 432 549 432 q 540 432 543 432 q 535 361 538 396 q 557 364 550 364 q 592 353 586 368 q 572 332 599 338 q 531 325 553 328 q 522 203 526 267 q 516 82 521 181 q 506 -69 511 -17 q 478 -97 503 -89 q 428 -100 454 -106 q 396 -78 403 -94 q 389 -64 392 -71 q 385 -48 386 -57 q 381 -33 383 -39 q 378 -17 379 -28 q 377 -3 378 -7 q 376 14 376 1 q 375 29 375 26 q 375 46 375 32 q 375 61 375 60 q 376 197 374 104 q 383 315 379 254 q 356 315 375 315 q 325 315 336 315 q 318 176 321 250 q 315 95 318 157 q 311 13 311 33 q 314 -68 311 -7 q 310 -83 315 -76 q 296 -92 304 -89 q 280 -97 288 -96 q 265 -100 272 -99 q 228 -96 247 -101 q 203 -76 208 -90 q 171 171 171 10 q 174 304 169 233 q 110 290 139 299 q 72 296 83 283 q 71 308 68 303 q 82 317 74 314 q 175 336 125 329 q 179 404 176 368 q 117 394 138 396 q 86 404 90 392 q 97 421 82 415 q 182 440 135 432 q 263 926 204 704 q 295 953 268 946 q 347 958 322 960 q 392 946 368 957 q 413 915 417 935 q 338 457 358 643 q 396 461 368 460 q 397 465 397 463 q 397 469 397 468 q 435 744 413 607 q 492 1013 465 935 q 522 1037 497 1031 q 568 1042 546 1043 q 610 1031 589 1040 q 629 1003 631 1021 q 603 852 622 950 q 582 735 585 754 m 386 350 q 393 429 389 389 q 335 425 363 428 q 328 347 331 389 q 386 350 361 349 z "},"$":{"ha":594,"x_min":68,"x_max":551,"o":"m 510 226 q 492 35 550 115 q 413 -33 461 -7 q 314 -64 365 -58 q 318 -161 318 -119 q 303 -178 318 -174 q 272 -178 288 -183 q 254 -161 256 -174 q 246 -61 247 -117 q 163 -21 199 -51 q 99 147 97 32 q 140 351 99 257 q 163 363 146 361 q 186 356 179 364 q 194 340 192 347 q 182 325 197 329 q 153 106 140 204 q 183 24 158 61 q 244 -26 207 -12 q 245 58 244 1 q 244 142 246 114 q 244 374 243 251 q 229 390 236 382 q 107 568 147 479 q 78 658 88 610 q 70 753 68 706 q 97 843 72 801 q 165 908 121 885 q 267 933 213 933 q 274 1040 269 979 q 285 1052 274 1049 q 309 1052 297 1056 q 321 1040 321 1049 q 315 929 317 981 q 400 892 363 921 q 456 815 438 863 q 439 797 461 800 q 404 807 410 792 q 383 844 396 826 q 351 874 369 861 q 314 894 332 888 q 299 513 303 668 q 411 375 333 464 q 510 226 488 288 m 251 586 q 265 896 256 715 q 247 890 256 894 q 199 846 217 875 q 178 784 181 817 q 185 718 176 751 q 251 586 200 664 m 421 88 q 354 256 425 165 q 297 321 332 283 q 299 136 296 219 q 311 -33 300 96 q 388 8 357 -26 q 421 88 419 42 z "},"%":{"ha":821,"x_min":67,"x_max":760,"o":"m 706 985 q 742 966 725 981 q 749 935 760 951 q 613 722 661 806 q 411 318 517 558 q 365 210 394 281 q 324 111 336 139 q 307 70 321 104 q 288 24 293 36 q 270 -13 282 13 q 247 -58 258 -39 q 224 -96 236 -76 q 175 -114 210 -117 q 149 -106 163 -112 q 136 -89 135 -100 q 201 157 143 -7 q 389 606 293 408 q 614 968 485 804 q 657 988 626 983 q 706 985 688 992 m 200 522 q 88 574 122 521 q 70 632 72 599 q 79 692 68 665 q 118 715 88 711 q 199 749 153 740 q 299 728 257 757 q 336 642 342 700 q 292 558 332 590 q 200 522 253 525 m 185 685 q 185 647 186 674 q 186 610 183 621 q 204 578 193 581 q 242 597 217 574 q 269 640 261 615 q 264 699 282 678 q 203 706 244 721 q 181 694 192 701 q 185 685 183 689 m 621 389 q 711 357 676 389 q 732 271 746 325 q 675 197 719 224 q 579 171 631 169 q 482 219 508 172 q 486 335 460 260 q 518 356 492 350 q 525 360 521 358 q 621 389 569 388 m 643 264 q 656 310 657 282 q 631 346 654 339 q 593 343 618 350 q 586 340 592 343 q 590 318 594 331 q 578 256 576 274 q 590 225 579 229 q 619 236 603 221 q 643 264 636 251 z "},"&":{"ha":801,"x_min":67,"x_max":743,"o":"m 644 621 q 610 631 629 622 q 594 654 590 639 q 599 675 594 658 q 604 699 603 692 q 608 719 606 706 q 610 743 610 733 q 609 765 610 753 q 606 788 608 776 q 579 832 597 818 q 563 839 574 835 q 554 839 561 839 q 535 838 544 839 q 513 835 521 836 q 499 831 507 833 q 492 779 494 800 q 458 506 472 632 q 522 490 497 510 q 535 464 536 481 q 517 440 533 447 q 486 425 501 432 q 449 404 467 415 q 443 324 444 365 q 513 344 476 338 q 602 344 551 354 q 679 303 653 335 q 707 228 707 265 q 683 153 707 190 q 630 86 660 115 q 569 36 600 57 q 433 -18 507 -1 q 431 -139 432 -89 q 395 -160 429 -160 q 360 -139 361 -160 q 357 -29 357 -87 q 210 -3 275 -33 q 106 108 125 35 q 143 272 83 190 q 247 383 185 331 q 150 411 193 389 q 95 458 115 429 q 71 522 75 488 q 74 590 67 556 q 100 658 82 625 q 314 854 164 775 q 458 907 388 892 q 488 1083 474 1013 q 501 1095 489 1092 q 524 1095 513 1099 q 533 1083 535 1092 q 511 915 526 1019 q 635 900 579 921 q 726 803 708 872 q 710 644 743 742 q 644 621 700 617 m 379 272 q 390 367 382 307 q 279 271 328 324 q 235 205 251 240 q 222 131 218 169 q 260 64 226 92 q 358 36 297 32 q 376 251 363 128 q 379 272 375 263 m 264 471 m 458 254 q 439 228 465 235 q 435 51 436 169 q 465 63 450 56 q 570 131 524 86 q 618 231 617 176 q 614 257 618 244 q 602 278 610 269 q 583 293 594 288 q 557 299 571 299 q 500 288 532 300 q 499 286 500 288 q 487 281 492 283 q 474 274 482 279 q 461 265 465 269 q 458 254 457 260 m 442 779 q 446 810 442 788 q 369 765 408 793 q 240 621 276 699 q 222 524 215 568 q 239 485 225 500 q 251 475 243 481 q 261 472 253 475 q 264 471 263 471 q 276 468 264 471 q 281 468 279 468 q 285 468 282 468 q 326 471 308 469 q 404 490 363 476 q 442 779 418 621 z "},"'":{"ha":251,"x_min":67,"x_max":188,"o":"m 85 993 q 118 1013 92 1008 q 165 1008 144 1018 q 181 978 186 997 q 125 885 163 910 q 103 880 118 879 q 83 889 89 881 q 70 940 68 913 q 85 993 72 967 z "},"(":{"ha":564,"x_min":60,"x_max":499,"o":"m 474 -43 q 492 -60 486 -49 q 488 -82 497 -71 q 324 -127 417 -140 q 171 -47 231 -114 q 74 249 88 44 q 89 593 61 426 q 196 889 118 769 q 426 1022 308 1061 q 435 1001 446 1015 q 400 997 425 989 q 385 997 393 1000 q 371 992 376 994 q 357 981 365 989 q 344 968 349 974 q 332 953 339 963 q 322 937 325 943 q 313 922 318 931 q 304 910 307 914 q 244 792 271 860 q 189 532 203 688 q 185 254 175 383 q 256 1 199 79 q 298 -42 275 -26 q 349 -62 321 -58 q 404 -46 376 -65 q 438 -36 417 -36 q 474 -43 458 -36 z "},")":{"ha":529,"x_min":67,"x_max":481,"o":"m 324 885 q 457 288 481 667 q 379 -7 446 100 q 263 -115 336 -78 q 113 -137 190 -153 q 81 -124 94 -133 q 69 -100 67 -115 q 92 -77 74 -85 q 128 -71 110 -69 q 292 74 231 -75 q 342 325 329 165 q 336 592 353 476 q 265 822 319 710 q 210 919 243 869 q 206 926 210 919 q 198 937 201 932 q 189 949 194 942 q 179 963 183 957 q 169 975 175 968 q 158 985 163 982 q 148 992 153 989 q 138 994 143 994 q 131 990 133 993 q 94 986 119 976 q 89 1004 79 992 q 106 1019 96 1014 q 128 1026 117 1025 q 150 1025 139 1026 q 173 1019 161 1024 q 194 1008 185 1014 q 213 996 204 1003 q 324 885 278 950 z "},"*":{"ha":406,"x_min":65,"x_max":338,"o":"m 311 864 q 328 860 319 864 q 336 850 336 857 q 311 836 336 838 q 251 832 285 833 q 307 789 289 810 q 296 771 319 776 q 264 775 274 767 q 222 808 247 792 q 219 751 221 779 q 206 740 218 743 q 183 740 194 736 q 171 751 171 743 q 175 801 174 776 q 166 793 171 797 q 158 785 161 789 q 149 776 154 781 q 140 767 144 772 q 132 758 136 763 q 96 756 121 747 q 89 774 78 763 q 118 802 99 783 q 143 826 138 821 q 92 825 117 825 q 72 831 78 824 q 72 844 67 838 q 92 853 78 851 q 149 856 119 854 q 142 861 144 858 q 123 880 136 865 q 100 900 110 894 q 106 921 82 913 q 133 919 122 926 q 175 882 139 915 q 174 919 175 901 q 178 928 174 925 q 189 933 182 932 q 202 933 196 933 q 214 928 208 932 q 219 919 219 925 q 221 901 219 913 q 238 918 226 907 q 254 935 249 929 q 289 936 267 946 q 294 921 300 929 q 262 888 283 910 q 232 860 240 867 q 311 864 276 863 z "},"+":{"ha":390,"x_min":67,"x_max":325,"o":"m 299 403 q 319 396 313 403 q 319 382 325 389 q 299 374 313 375 q 257 372 281 374 q 256 339 256 353 q 254 310 256 332 q 252 278 253 289 q 249 250 251 268 q 244 218 247 232 q 236 190 240 204 q 188 167 228 167 q 138 190 147 168 q 118 339 118 239 q 118 363 118 350 q 99 361 107 361 q 69 371 74 358 q 74 382 68 378 q 86 388 79 386 q 119 392 101 389 q 128 490 122 444 q 152 521 131 511 q 197 531 174 531 q 244 521 221 531 q 267 490 268 511 q 263 442 265 474 q 260 401 261 410 q 299 403 281 401 z "},",":{"ha":283,"x_min":68,"x_max":215,"o":"m 122 83 q 175 101 132 107 q 213 75 215 97 q 211 68 213 72 q 172 -12 193 22 q 113 -74 140 -61 q 91 -75 106 -78 q 72 -64 76 -72 q 69 -51 69 -56 q 72 -37 69 -46 q 77 -22 75 -28 q 84 -8 79 -17 q 90 6 89 1 q 122 83 110 51 z "},"-":{"ha":401,"x_min":67,"x_max":336,"o":"m 332 374 q 324 353 335 361 q 296 343 313 346 q 101 339 213 325 q 78 347 89 340 q 69 365 68 354 q 113 388 74 386 q 283 399 114 388 q 313 393 297 400 q 332 374 329 386 z "},".":{"ha":213,"x_min":68,"x_max":146,"o":"m 138 24 q 142 8 146 17 q 132 -6 136 1 q 125 -15 125 -15 q 119 -19 124 -17 l 117 -22 q 93 -29 108 -29 q 72 -18 74 -28 q 71 -11 71 -12 q 70 -1 69 -7 q 74 19 71 6 q 90 32 75 26 q 117 33 101 36 q 138 24 131 32 z "},"/":{"ha":769,"x_min":67,"x_max":707,"o":"m 657 1001 q 690 985 675 997 q 696 957 706 972 q 426 443 510 631 q 354 274 403 392 q 265 68 306 156 q 178 -94 224 -19 q 113 -114 163 -118 q 69 -86 68 -111 q 72 -78 69 -82 q 108 8 90 -37 q 147 113 125 54 q 178 200 168 172 q 286 469 239 363 q 572 986 433 801 q 612 1005 583 1001 q 657 1001 640 1008 z "},":":{"ha":250,"x_min":68,"x_max":182,"o":"m 113 575 q 76 585 88 572 q 69 608 69 592 q 82 654 69 629 q 138 671 94 676 q 169 647 171 667 q 167 641 168 644 q 162 630 165 638 q 156 617 158 622 q 151 606 154 613 q 144 594 147 599 q 135 585 140 590 q 125 578 131 581 q 113 575 119 576 m 149 308 q 170 303 158 308 q 179 289 182 297 q 169 254 176 272 q 163 240 168 253 q 156 221 157 228 q 126 210 151 208 q 103 225 104 213 q 99 260 99 258 q 108 294 100 279 q 149 308 118 311 z "},";":{"ha":338,"x_min":65,"x_max":268,"o":"m 181 635 q 228 660 186 661 q 268 638 264 658 l 267 628 q 226 561 250 578 q 203 556 218 554 q 181 568 188 558 q 181 635 169 585 m 168 344 q 222 365 176 369 q 261 339 261 361 l 260 331 q 211 219 232 257 q 133 128 171 146 q 76 131 100 113 q 71 149 65 139 q 77 165 72 157 q 90 181 82 172 q 100 194 97 190 q 125 242 113 215 q 168 344 142 274 z "},"<":{"ha":399,"x_min":67,"x_max":335,"o":"m 286 357 q 320 343 306 354 q 328 315 335 332 q 254 292 315 286 q 242 293 251 292 q 214 296 225 294 q 182 300 203 297 q 148 307 161 303 q 117 317 135 311 q 91 331 100 322 q 74 349 82 339 q 69 372 67 358 q 82 403 71 386 q 178 486 104 440 q 292 539 253 536 q 326 524 324 542 q 325 510 328 517 q 316 496 322 503 q 305 485 310 489 q 290 474 300 481 q 279 465 281 467 q 217 413 231 426 q 192 379 193 389 q 190 372 190 379 q 217 369 199 374 q 238 365 235 365 q 286 357 256 363 m 190 367 q 190 368 192 368 l 190 367 z "},"=":{"ha":467,"x_min":67,"x_max":404,"o":"m 90 401 q 72 419 71 407 q 90 439 74 432 q 120 446 103 443 q 149 449 138 449 q 184 450 161 450 q 213 450 207 450 q 340 449 311 453 q 350 446 344 447 q 361 441 356 444 q 369 433 367 438 q 372 424 372 429 q 362 406 372 413 q 340 399 351 400 q 213 396 326 397 q 184 395 206 396 q 150 394 163 394 q 120 396 138 394 q 90 401 103 397 m 375 346 q 396 317 403 336 q 351 299 388 299 q 290 301 331 297 q 231 307 249 306 q 172 306 213 307 q 110 306 132 304 q 71 322 78 307 q 74 339 67 332 q 89 349 81 346 q 231 363 143 364 q 375 346 332 360 z "},">":{"ha":403,"x_min":67,"x_max":336,"o":"m 314 485 q 334 447 332 465 q 323 413 336 428 q 292 386 310 399 q 248 364 274 374 q 205 348 222 354 q 169 338 188 342 q 85 350 113 322 q 80 380 71 365 q 107 400 89 394 q 189 426 153 411 q 193 428 190 428 q 206 435 201 432 q 213 444 210 438 q 208 457 217 450 q 193 470 203 464 q 167 483 183 476 q 149 492 151 490 q 85 518 122 506 q 71 528 75 522 q 74 543 67 535 q 206 544 107 581 q 314 485 288 513 z "},"?":{"ha":526,"x_min":64,"x_max":464,"o":"m 450 829 q 450 681 464 776 q 364 365 435 572 q 313 204 332 268 q 293 122 299 154 q 288 78 290 107 q 283 36 285 49 q 249 0 281 10 q 185 1 217 -10 q 147 36 153 11 q 145 53 146 44 q 144 68 144 61 q 144 85 143 75 q 146 101 146 96 q 149 118 146 107 q 152 134 151 129 q 156 151 153 139 q 160 167 160 164 q 165 184 161 171 q 169 199 168 197 q 217 343 186 257 q 247 422 228 371 q 283 516 267 474 q 311 597 299 558 q 347 728 336 675 q 350 843 363 801 q 308 896 339 879 q 242 908 278 913 q 179 881 207 903 q 124 782 128 842 q 137 723 121 750 q 183 693 153 696 q 198 688 192 693 q 201 676 204 683 q 171 667 197 664 q 107 692 135 669 q 72 750 79 715 q 77 822 64 786 q 117 885 90 858 q 231 944 163 932 q 360 929 300 956 q 450 829 431 897 m 267 -67 q 266 -79 267 -72 q 264 -90 265 -86 q 265 -115 264 -99 q 251 -136 267 -125 q 215 -144 239 -143 q 182 -137 197 -144 q 164 -115 167 -131 q 164 -87 161 -103 q 169 -69 167 -75 q 179 -54 171 -64 q 207 -42 188 -44 q 233 -42 219 -39 q 256 -50 244 -43 q 267 -67 268 -57 z "},"@":{"ha":824,"x_min":60,"x_max":769,"o":"m 700 178 q 726 159 717 172 q 721 131 735 146 q 579 28 649 67 q 431 -14 510 -10 q 280 15 354 -18 q 157 107 206 47 q 80 275 99 179 q 75 463 61 371 q 128 643 89 554 q 199 769 156 710 q 297 879 242 829 q 422 953 351 929 q 565 965 493 978 q 691 900 643 953 q 750 768 739 847 q 713 474 768 635 q 673 383 696 424 q 610 306 650 342 q 524 264 571 271 q 472 265 497 260 q 426 287 447 271 q 399 329 406 303 q 396 344 397 336 q 325 311 360 315 q 267 319 293 307 q 231 360 240 332 q 235 460 219 396 q 282 562 249 514 q 360 633 315 610 q 421 646 385 647 q 478 622 457 644 q 491 598 488 613 q 496 562 494 583 q 499 533 497 540 q 484 517 500 522 q 451 515 468 511 q 429 528 433 518 q 423 556 428 535 q 413 586 418 576 q 411 590 413 589 q 388 568 390 572 q 325 453 342 519 q 318 386 315 415 q 321 375 318 382 q 411 489 375 424 q 442 508 418 501 q 488 507 467 514 q 510 481 510 500 q 510 408 510 408 q 513 353 511 358 q 535 382 525 365 q 614 628 597 481 q 617 742 622 678 q 583 849 613 807 q 522 892 557 889 q 496 889 511 893 q 457 872 478 883 q 308 719 378 826 q 221 522 249 628 q 200 379 201 450 q 223 235 199 308 q 297 114 247 163 q 374 65 333 79 q 446 60 411 53 q 478 71 461 64 q 508 84 496 78 q 538 103 519 90 q 564 122 557 117 q 592 145 571 128 q 617 165 614 163 q 700 178 653 194 m 525 328 q 522 331 525 329 q 525 328 525 326 z "},"A":{"ha":906,"x_min":-56,"x_max":839,"o":"m 64 213 q 7 239 32 224 q -36 281 -18 254 q -54 340 -54 308 q -26 428 -54 386 q 46 501 3 469 q 226 565 122 557 q 385 544 306 571 q 483 867 413 736 q 613 994 540 975 q 701 983 657 1006 q 772 919 746 960 q 802 850 790 890 q 818 782 814 810 q 828 706 822 754 q 835 464 838 614 q 830 305 833 424 q 826 147 826 186 q 826 -12 825 107 q 802 -44 826 -35 q 753 -54 778 -54 q 704 -44 726 -54 q 679 -12 682 -35 q 676 32 678 7 q 596 292 639 204 q 417 215 506 242 q 417 186 417 199 q 422 79 418 136 q 426 26 425 47 q 426 16 426 25 q 427 1 426 7 q 430 -12 428 -6 q 436 -22 432 -19 q 443 -31 443 -25 q 436 -42 443 -37 q 401 -42 422 -51 q 384 -24 390 -36 q 376 -1 378 -11 q 374 28 375 8 q 374 51 374 47 q 365 186 368 111 q 365 203 365 188 q 299 193 332 196 q 64 213 171 179 m 417 251 q 578 325 496 278 q 519 406 551 369 q 429 482 478 451 q 421 385 424 435 q 417 251 417 321 m 639 317 q 678 226 660 276 q 686 349 679 274 q 639 317 663 332 m 499 781 q 435 524 454 664 q 575 413 515 483 q 619 351 599 385 q 690 401 654 374 q 696 464 693 438 q 704 667 704 586 q 697 872 706 817 q 668 953 689 926 q 596 943 643 985 q 499 781 542 894 m 72 468 q 13 392 35 436 q 7 307 -8 349 q 158 225 31 244 q 365 236 257 211 q 372 440 364 344 q 379 508 375 474 q 219 532 300 543 q 72 468 133 521 z "},"B":{"ha":708,"x_min":-68,"x_max":657,"o":"m 233 -136 q 107 -126 168 -142 q 10 -67 46 -110 q -29 143 -68 26 q 19 233 -12 192 q 7 471 10 332 q 31 953 0 756 q 56 985 35 975 q 104 996 78 996 q 154 985 129 996 q 178 953 179 975 q 171 794 176 901 q 163 629 165 686 q 232 817 190 738 q 324 935 268 888 q 449 982 381 983 q 515 963 486 982 q 551 910 544 944 q 503 757 564 849 q 368 603 449 675 q 530 528 458 588 q 625 382 601 468 q 614 157 657 268 q 475 -32 571 46 q 233 -136 361 -124 m 235 689 q 208 593 221 644 q 422 789 332 674 q 468 856 440 813 q 488 924 496 899 q 455 950 481 949 q 407 940 429 951 q 367 915 385 929 q 235 689 288 851 m 29 144 q 25 32 10 83 q 68 -33 36 -7 q 142 -69 100 -58 q 299 -37 210 -87 q 435 78 379 8 q 505 235 490 149 q 485 406 519 322 q 378 519 449 488 q 343 531 361 526 q 319 533 332 533 q 306 533 313 535 q 301 533 303 533 q 294 532 299 533 q 261 524 281 531 q 194 525 228 511 q 174 388 183 467 q 168 346 171 368 q 322 346 254 376 q 389 283 367 326 q 393 196 411 239 q 360 186 386 181 q 344 199 344 190 q 346 203 344 201 q 347 267 358 238 q 306 316 336 297 q 243 333 276 335 q 164 310 204 331 q 163 286 164 307 q 164 229 163 272 q 165 174 164 215 q 167 111 167 133 q 160 -10 169 28 q 113 -29 154 -29 q 65 -10 75 -29 q 33 115 47 26 q 29 144 32 129 z "},"C":{"ha":553,"x_min":-67,"x_max":485,"o":"m 50 54 q -26 267 -6 128 q 13 717 -65 515 q 136 906 56 831 q 199 949 165 932 q 273 969 233 965 q 343 947 313 974 q 385 887 371 926 q 402 818 400 847 q 404 743 404 789 q 375 479 404 654 q 362 467 374 471 q 339 468 350 464 q 329 479 328 472 q 357 724 356 642 q 346 847 357 794 q 326 899 340 879 q 288 929 306 931 q 257 900 279 928 q 233 867 247 889 q 193 793 215 839 q 136 622 158 715 q 122 258 97 460 q 169 86 135 163 q 219 11 192 38 q 272 -12 250 -17 q 340 35 301 -8 q 383 110 364 61 q 433 315 410 176 q 449 327 436 324 q 472 327 461 331 q 483 315 483 324 q 467 222 472 250 q 448 144 463 194 q 415 57 433 93 q 353 -28 382 -6 q 246 -60 307 -62 q 50 54 131 -57 z "},"D":{"ha":711,"x_min":-46,"x_max":656,"o":"m 42 -104 q -22 -14 0 -69 q -44 97 -44 42 q -32 207 -44 151 q 40 340 -11 282 q 38 406 39 374 q 54 863 28 681 q 78 892 57 882 q 124 901 99 901 q 169 892 146 901 q 193 863 193 882 q 190 803 192 836 q 185 738 188 771 q 182 681 183 706 q 243 865 207 804 q 365 967 293 950 q 503 919 438 983 q 635 578 611 813 q 601 204 656 383 q 558 88 583 142 q 492 -17 532 35 q 404 -103 453 -68 q 222 -162 324 -160 q 42 -104 121 -165 m 47 263 q 28 58 -3 158 q 103 -53 47 -4 q 219 -92 158 -101 q 421 92 335 -71 q 516 390 493 225 q 513 706 539 556 q 474 860 497 804 q 378 936 435 957 q 278 826 318 917 q 232 669 251 768 q 201 432 211 568 q 333 414 278 446 q 387 363 367 394 q 404 293 407 331 q 392 280 404 283 q 367 280 379 276 q 354 293 354 283 q 328 369 357 336 q 256 406 299 401 q 199 400 229 408 q 192 260 196 356 q 185 117 188 165 q 186 82 185 90 q 186 28 188 60 q 185 12 186 22 q 185 -1 185 1 q 185 -7 185 -4 l 183 -10 q 174 -3 179 -6 l 174 -4 q 182 -14 182 -7 q 182 -19 182 -17 q 157 -39 182 -32 q 156 -39 157 -39 q 130 -39 144 -42 q 108 -28 115 -36 q 75 68 90 -6 q 57 179 67 104 q 47 263 51 219 z "},"E":{"ha":531,"x_min":-64,"x_max":463,"o":"m 60 344 q -3 418 25 374 q -32 653 -64 517 q 38 808 -11 735 q 149 929 92 890 q 300 958 233 988 q 374 847 358 933 q 383 760 382 804 q 378 659 385 715 q 368 574 372 603 q 353 479 364 546 q 340 467 351 471 q 317 468 328 464 q 307 479 306 472 q 322 569 317 538 q 331 651 326 601 q 335 745 336 701 q 328 831 333 789 q 319 860 325 843 q 304 899 314 878 q 282 926 294 919 q 253 922 269 932 q 185 822 222 899 q 110 569 111 679 q 124 479 110 518 q 140 444 131 461 q 150 429 143 440 l 151 428 q 156 424 154 425 q 190 389 164 413 q 193 386 192 388 q 197 385 194 385 q 217 365 210 378 q 217 343 224 353 q 169 249 188 299 q 148 142 151 199 q 169 40 144 86 q 185 17 175 29 q 209 -3 196 6 q 236 -14 222 -12 q 329 47 281 -18 q 381 167 356 82 q 413 315 394 214 q 426 327 414 324 q 451 327 439 331 q 461 315 463 324 q 382 38 431 129 q 203 -58 324 -72 q 95 -18 143 -53 q 25 72 47 17 q 12 210 1 140 q 60 344 22 281 z "},"F":{"ha":590,"x_min":-64,"x_max":939,"o":"m -21 761 q -51 772 -39 763 q -58 796 -64 781 q -10 835 -51 815 q 144 854 63 868 q 281 907 221 886 q 280 916 281 910 q 279 926 279 922 q 303 956 279 946 q 349 965 326 965 q 408 947 389 965 q 743 988 592 997 q 889 954 847 982 q 927 908 915 936 q 926 850 939 881 q 892 840 921 835 q 876 858 869 844 q 879 889 882 874 q 867 917 876 904 q 844 938 858 929 q 743 957 817 953 q 524 942 642 964 q 419 917 474 932 q 436 482 435 760 q 525 497 481 492 q 553 489 550 501 q 538 472 558 475 q 436 454 488 465 q 436 447 436 451 q 433 207 438 317 q 401 -29 428 47 q 358 -49 396 -49 q 315 -29 321 -49 q 297 207 299 40 q 296 411 296 353 q 240 389 268 400 q 211 393 225 382 q 214 410 200 403 q 217 411 215 411 q 294 442 256 428 q 294 444 294 442 q 294 447 294 446 q 289 632 293 519 q 183 801 260 754 q 144 818 165 813 q 57 782 144 818 q 46 777 54 781 q 35 772 38 774 q 25 768 33 771 q 14 765 17 765 q 3 762 11 764 q -9 760 -6 760 q -21 761 -12 761 m 281 871 q 199 840 243 857 q 269 799 238 825 q 283 786 276 793 q 281 871 282 833 m 54 821 q -14 792 39 817 q 30 809 1 799 q 65 822 58 819 q 67 824 67 824 q 54 821 60 822 z "},"G":{"ha":693,"x_min":-49,"x_max":757,"o":"m 33 158 q -33 351 -17 228 q -33 570 -47 458 q 24 778 -18 682 q 150 944 71 885 q 241 980 190 975 q 333 954 292 985 q 393 786 386 908 q 364 581 399 692 q 349 572 361 574 q 326 574 336 569 q 319 588 317 579 q 346 782 353 696 q 325 878 342 833 q 276 939 301 938 q 265 936 271 939 q 254 927 260 933 q 244 917 249 921 q 235 905 240 913 q 228 896 229 897 q 192 835 210 872 q 139 682 167 783 q 108 343 96 525 q 146 185 117 249 q 246 121 189 92 q 351 246 303 151 q 385 329 372 285 q 385 407 383 375 q 408 433 385 425 q 456 435 431 440 q 485 415 481 431 q 528 114 532 251 q 554 128 542 121 q 706 238 663 185 q 742 242 717 251 q 749 224 756 235 q 611 118 707 169 q 525 75 569 96 q 504 -37 519 15 q 415 -190 478 -126 q 265 -271 353 -254 q 107 -250 175 -289 q 58 -198 71 -229 q 63 -128 46 -167 q 183 -26 89 -69 q 241 -2 211 -14 q 311 24 271 10 q 369 44 351 38 q 381 50 369 44 q 381 52 381 50 q 382 54 382 54 q 389 224 390 122 q 371 194 379 208 q 211 74 300 89 q 113 90 160 65 q 33 158 67 114 m 154 -231 q 217 -238 185 -244 q 275 -208 250 -232 q 375 13 350 -137 q 276 -24 279 -22 q 135 -103 171 -64 q 107 -178 101 -140 q 154 -231 111 -211 z "},"H":{"ha":779,"x_min":-61,"x_max":833,"o":"m 6 393 q -44 442 -28 408 q -51 514 -60 476 q 3 599 -39 564 q 98 645 46 633 q 201 650 150 657 q 232 913 210 796 q 301 951 240 951 q 349 942 325 951 q 371 913 372 932 q 360 754 368 864 q 347 586 351 644 q 403 532 378 563 q 494 576 458 560 q 521 913 503 697 q 558 951 522 940 q 630 951 594 963 q 667 913 665 940 q 664 820 667 871 q 658 734 661 769 q 651 638 656 699 q 643 550 646 578 q 629 233 629 356 q 633 78 629 171 q 634 62 633 74 q 635 43 635 50 q 637 26 636 36 q 640 10 638 17 q 665 -32 649 -29 q 721 4 689 -37 q 758 83 743 33 q 786 246 778 143 q 798 258 786 254 q 821 258 810 261 q 832 246 832 254 q 796 38 826 110 q 738 -40 776 -11 q 649 -68 700 -69 q 594 -57 618 -68 q 553 -24 569 -46 q 526 22 538 -1 q 508 78 515 44 q 499 132 501 111 q 492 185 496 153 q 471 261 478 233 q 417 428 443 372 q 385 485 403 458 q 343 464 361 474 q 343 447 343 450 q 344 217 342 324 q 347 160 344 199 q 350 99 349 122 q 350 42 351 75 q 344 -17 349 10 q 297 -47 340 -44 q 244 -25 254 -50 q 206 207 218 44 q 196 404 197 303 q 175 399 183 400 q 118 385 142 389 q 63 382 94 381 q 6 393 31 383 m 492 539 q 424 506 465 526 q 461 443 444 476 q 485 388 474 418 q 492 539 486 456 m 364 513 q 346 535 356 525 q 344 503 344 519 q 364 513 353 507 m 200 621 q 107 614 156 628 q 25 564 58 600 q -4 478 -8 528 q 196 436 8 367 q 196 440 196 438 q 196 443 196 442 q 200 621 196 543 z "},"I":{"ha":322,"x_min":-57,"x_max":374,"o":"m -19 882 q -50 893 -42 876 q -37 910 -57 904 q -33 911 -36 910 q 67 928 14 919 q 123 955 81 951 q 189 942 165 958 q 283 947 238 946 q 301 944 292 949 q 310 932 310 940 q 283 917 310 918 q 207 913 246 915 q 205 820 207 871 q 200 734 203 769 q 192 638 197 699 q 185 550 188 578 q 169 233 169 356 q 175 78 169 171 q 181 10 178 24 q 207 -32 190 -29 q 261 4 229 -37 q 300 83 283 33 q 326 246 318 143 q 340 258 328 254 q 363 258 351 261 q 372 246 374 254 q 338 38 368 110 q 279 -40 318 -11 q 190 -68 240 -69 q 142 -58 164 -68 q 105 -35 119 -49 q 78 2 90 -21 q 58 44 65 25 q 46 93 51 64 q 38 140 40 122 q 33 185 36 158 q 33 546 18 333 q 60 896 42 671 q -19 882 19 889 z "},"J":{"ha":622,"x_min":-78,"x_max":678,"o":"m -50 778 q 8 864 -78 804 q 124 915 63 901 q 249 908 185 928 q 265 917 263 915 q 510 979 408 975 q 610 944 579 982 q 621 842 638 913 q 586 828 617 824 q 568 842 567 832 q 568 924 581 900 q 490 946 551 954 q 422 933 457 942 q 465 896 463 925 q 488 617 478 799 q 488 371 494 478 q 531 361 510 367 q 675 244 654 325 q 667 230 678 235 q 645 228 657 225 q 631 238 633 231 q 486 340 603 315 q 486 338 486 339 q 486 338 486 338 q 444 103 474 201 q 317 -81 403 -32 q 225 -105 274 -104 q 135 -79 176 -106 q 83 -11 99 -53 q 72 78 68 31 q 151 254 81 175 q 315 361 221 333 q 358 371 336 367 q 356 481 358 418 q 335 757 354 535 q 247 871 299 839 q 167 833 231 863 q 68 790 104 804 q 58 785 68 790 q 44 780 47 781 q 31 775 42 779 q 16 770 21 771 q 2 767 11 769 q -12 766 -7 765 q -26 767 -18 767 q -40 771 -33 768 q -50 778 -46 774 m 290 889 q 328 856 310 875 q 326 896 326 879 q 326 903 326 900 q 290 889 308 896 m 307 -4 q 333 85 324 36 q 358 339 358 192 q 265 299 308 326 q 149 170 192 253 q 128 8 106 88 q 154 -40 136 -18 q 198 -72 172 -62 q 254 -71 224 -82 q 307 -4 285 -58 m 7 808 q 0 803 4 807 q 0 801 -4 800 q 6 803 1 801 q 33 814 8 803 q 201 888 50 821 q 181 890 190 889 q 60 851 124 892 q 7 808 32 833 z "},"K":{"ha":622,"x_min":-31,"x_max":690,"o":"m 11 11 q -3 49 3 28 q -13 86 -10 71 q -19 129 -17 101 q -22 167 -21 157 q -24 210 -22 176 q -25 249 -25 244 q -26 485 -29 347 q 21 958 -18 771 q 90 999 29 999 q 138 989 114 999 q 160 958 163 979 q 143 758 158 938 q 124 485 128 579 q 121 385 122 442 q 178 459 150 415 q 220 529 207 503 q 263 611 233 556 q 376 932 351 786 q 391 944 379 942 q 414 944 403 947 q 424 932 425 940 q 310 604 397 781 q 265 517 279 544 q 222 444 251 490 q 163 365 192 397 q 223 338 194 360 q 263 288 251 317 q 273 245 271 269 q 274 200 275 221 q 275 156 274 179 q 281 94 275 136 q 288 29 288 51 q 299 -12 289 -3 q 356 -4 314 -28 q 454 79 392 17 q 488 115 467 92 q 524 152 510 138 q 558 185 539 167 q 597 221 578 204 q 636 251 617 238 q 674 250 651 263 q 674 229 689 242 q 612 178 642 207 q 543 109 582 150 q 488 51 504 68 q 444 10 461 25 q 399 -24 426 -4 q 343 -49 371 -43 q 286 -51 315 -56 q 188 4 229 -42 q 146 122 151 44 q 146 166 144 143 q 151 217 147 189 q 157 260 156 246 q 139 339 164 346 q 126 332 133 338 q 121 328 125 331 q 119 244 121 288 q 120 185 119 232 q 119 126 121 139 q 118 67 119 83 q 106 11 117 47 q 59 -10 97 -11 q 11 11 21 -10 z "},"L":{"ha":585,"x_min":-58,"x_max":651,"o":"m 79 543 q -56 754 -36 592 q -33 767 -57 768 q -10 754 -11 767 q 10 686 -4 721 q 44 620 24 651 q 97 572 65 589 q 163 560 128 554 q 171 743 158 657 q 183 813 176 785 q 202 881 189 842 q 238 948 215 921 q 292 989 261 975 q 346 997 315 1000 q 397 976 376 994 q 428 860 438 942 q 390 726 421 793 q 313 607 358 658 q 300 594 307 601 q 313 500 304 551 q 331 392 321 449 q 347 297 342 335 q 351 88 364 172 q 596 242 519 156 q 633 246 607 256 q 640 226 650 239 q 382 64 563 138 q 343 49 368 58 q 331 8 338 26 q 246 -100 307 -56 q 118 -143 185 -144 q 58 -127 86 -142 q 33 -83 29 -112 q 41 -65 35 -74 q 53 -51 47 -57 q 70 -37 58 -44 q 88 -26 82 -29 q 108 -15 94 -22 q 124 -7 122 -8 q 189 24 153 8 q 203 101 197 57 q 206 156 206 126 q 206 207 207 186 q 201 263 206 228 q 195 314 197 299 q 186 370 193 329 q 178 422 179 411 q 165 531 169 479 q 79 543 119 526 m 118 -87 q 139 -74 125 -86 q 169 -29 157 -57 q 158 -36 161 -35 q 152 -40 158 -36 q 143 -45 146 -43 q 133 -52 140 -47 q 122 -60 125 -57 q 115 -69 119 -64 q 110 -78 110 -75 q 111 -86 111 -81 q 111 -87 111 -86 q 114 -89 113 -90 q 118 -87 117 -89 m 304 899 q 294 661 286 804 q 299 668 297 665 q 365 811 346 742 q 363 946 389 901 q 338 965 349 968 q 324 949 333 964 q 304 899 310 929 z "},"M":{"ha":858,"x_min":-28,"x_max":915,"o":"m 110 -18 q 85 -45 108 -37 q 37 -44 61 -53 q 8 -18 13 -36 q -26 450 -28 157 q 4 917 -25 757 q 21 940 7 931 q 53 952 35 950 q 88 952 71 954 q 118 941 106 950 q 131 917 131 932 q 115 638 129 858 q 176 832 139 753 q 286 928 221 931 q 340 899 321 926 q 372 829 360 872 q 419 544 407 714 q 429 601 424 575 q 485 822 456 746 q 503 865 494 847 q 526 903 511 882 q 560 935 540 925 q 604 940 581 944 q 714 785 682 931 q 736 556 736 683 q 728 330 735 497 q 724 72 721 163 q 723 51 724 68 q 722 22 722 35 q 726 -3 722 10 q 740 -18 731 -15 q 756 -14 747 -21 q 775 10 765 -7 q 788 33 785 26 q 797 54 792 40 q 860 246 839 146 q 875 260 861 256 q 901 260 889 264 q 913 246 914 256 q 847 38 893 140 q 820 -11 835 10 q 783 -44 806 -32 q 683 -44 733 -72 q 611 32 638 -18 q 588 143 596 61 q 590 379 581 221 q 596 457 593 410 q 601 547 599 504 q 606 625 604 589 q 599 851 615 769 q 590 883 594 875 q 588 891 590 886 q 583 899 585 896 q 576 886 583 894 q 568 876 569 878 q 531 789 547 840 q 476 553 503 706 q 439 313 465 486 q 426 229 433 282 q 426 226 426 228 q 426 222 426 224 q 426 174 426 214 q 426 117 426 133 q 422 70 425 100 q 415 17 419 40 q 380 -15 410 -6 q 321 -16 350 -25 q 290 17 292 -7 q 290 82 289 47 q 296 158 292 117 q 300 222 300 200 q 306 429 304 299 q 307 788 310 642 q 301 871 307 854 q 282 896 294 894 q 253 871 272 896 q 190 718 219 826 q 128 363 153 576 q 115 183 118 269 q 111 86 111 92 q 110 -18 111 29 z "},"N":{"ha":651,"x_min":-32,"x_max":708,"o":"m -4 224 q -26 451 -21 338 q -28 681 -31 567 q -10 914 -24 839 q 65 956 -1 956 q 116 945 90 956 q 140 914 142 935 q 133 797 139 874 q 125 681 126 719 q 126 457 121 568 q 128 424 126 451 q 160 625 140 532 q 229 826 190 760 q 293 903 256 872 q 374 929 331 933 q 451 886 422 926 q 492 790 479 846 q 507 546 514 696 q 485 300 506 499 q 465 65 467 117 q 492 -24 465 -3 q 569 31 524 -51 q 654 251 626 131 q 689 267 658 269 q 708 251 708 263 q 693 193 700 221 q 672 126 686 165 q 642 55 657 86 q 603 -6 626 24 q 556 -52 581 -36 q 499 -68 532 -68 q 431 -47 467 -68 q 359 27 383 -21 q 333 133 335 75 q 351 376 332 229 q 383 628 376 567 q 388 673 383 640 q 393 723 392 706 q 396 767 394 740 q 396 817 397 794 q 390 863 394 840 q 368 901 383 897 q 318 871 353 904 q 263 788 286 840 q 199 564 224 707 q 154 118 169 403 q 146 6 161 53 q 107 -13 140 -12 q 64 0 74 -14 q 31 56 39 33 q 15 108 22 79 q -4 224 4 158 z "},"O":{"ha":571,"x_min":-46,"x_max":636,"o":"m -10 294 q 15 489 -10 383 q -37 640 -28 558 q -15 799 -46 722 q 78 911 15 871 q 217 944 140 951 q 310 917 268 939 q 380 863 351 896 q 430 788 408 831 q 462 699 451 746 q 479 603 472 653 q 485 508 486 554 q 482 419 485 461 q 454 250 474 328 q 594 257 526 240 q 626 253 618 264 q 618 235 636 240 q 446 219 538 208 q 389 88 424 144 q 272 -16 346 13 q 118 -6 197 -44 q -10 294 -10 64 m 357 194 q 371 235 364 214 q 289 264 329 246 q 133 360 204 303 q 125 294 128 325 q 126 129 115 211 q 194 18 138 40 q 300 75 242 0 q 357 194 331 115 m 36 692 q 44 596 33 644 q 65 663 53 626 q 101 688 72 682 q 155 691 131 694 q 195 674 179 688 q 206 640 211 661 q 144 411 151 446 q 340 281 222 329 q 379 267 358 272 q 408 493 408 379 q 357 775 410 667 q 276 874 329 833 q 167 899 224 914 q 75 822 108 883 q 36 692 42 760 z "},"P":{"ha":554,"x_min":-39,"x_max":610,"o":"m -3 149 q -25 392 -19 261 q -8 890 -37 696 q 17 922 -4 913 q 65 932 39 932 q 114 922 89 932 q 138 890 139 913 q 118 494 119 567 q 124 524 121 508 q 267 863 172 758 q 422 928 340 946 q 510 824 488 914 q 514 706 525 769 q 480 589 503 643 q 424 483 457 535 q 267 321 357 385 q 313 313 288 318 q 348 304 319 311 q 386 295 376 297 q 420 289 396 293 q 458 284 444 285 q 493 283 472 283 q 532 284 514 282 q 567 292 550 286 q 604 286 593 299 q 606 273 610 279 q 594 265 603 267 q 371 267 503 239 q 319 278 360 268 q 258 292 279 288 q 225 293 240 294 q 158 260 192 274 q 153 258 156 260 q 151 257 153 258 q 144 253 149 254 q 138 69 140 183 q 140 13 140 32 q 136 -17 139 3 q 135 -22 136 -18 q 135 -28 135 -25 q 135 -32 135 -31 q 130 -49 139 -42 q 108 -58 121 -56 q 89 -58 96 -60 q 44 -32 58 -51 q 22 22 31 -12 q -3 149 10 67 m 351 882 q 254 756 297 846 q 151 351 175 590 q 222 403 193 378 q 336 525 292 461 q 444 822 447 682 q 419 889 443 869 q 351 882 394 913 z "},"Q":{"ha":571,"x_min":-46,"x_max":636,"o":"m -10 294 q 15 489 -10 383 q -37 640 -28 558 q -15 799 -46 722 q 78 911 15 871 q 217 944 140 951 q 310 917 268 939 q 380 863 351 896 q 430 788 408 831 q 462 699 451 746 q 479 603 472 653 q 485 508 486 554 q 482 419 485 461 q 454 250 474 328 q 594 257 526 240 q 626 253 618 264 q 618 235 636 240 q 446 219 538 208 q 389 88 424 144 q 272 -16 346 13 q 118 -6 197 -44 q -10 294 -10 64 m 357 194 q 371 235 364 214 q 289 264 329 246 q 133 360 204 303 q 125 294 128 325 q 126 129 115 211 q 194 18 138 40 q 300 75 242 0 q 357 194 331 115 m 36 692 q 44 596 33 644 q 65 663 53 626 q 101 688 72 682 q 155 691 131 694 q 195 674 179 688 q 206 640 211 661 q 144 411 151 446 q 340 281 222 329 q 379 267 358 272 q 408 493 408 379 q 357 775 410 667 q 276 874 329 833 q 167 899 224 914 q 75 822 108 883 q 36 692 42 760 z "},"R":{"ha":619,"x_min":-39,"x_max":681,"o":"m -3 149 q -25 392 -19 261 q -8 890 -37 696 q 17 922 -4 913 q 65 932 39 932 q 114 922 89 932 q 138 890 139 913 q 118 494 119 567 q 124 524 121 510 q 267 863 172 758 q 422 928 340 946 q 510 824 488 914 q 514 706 525 769 q 480 589 503 643 q 424 483 457 535 q 229 296 343 364 q 300 268 269 289 q 326 248 315 260 q 347 219 338 236 q 360 192 356 203 q 372 158 365 182 q 379 127 378 135 q 385 92 381 119 q 392 61 390 64 q 422 -43 403 -3 q 433 -57 431 -57 q 447 -43 436 -57 q 489 15 464 -25 q 631 244 496 26 q 665 251 639 258 q 675 238 681 247 q 531 0 539 14 q 517 -22 528 -4 q 500 -49 506 -40 q 483 -70 494 -58 q 460 -87 472 -82 q 351 -83 414 -110 q 317 -62 332 -75 q 292 -28 301 -49 q 276 6 282 -8 q 265 48 269 19 q 260 88 261 76 q 257 129 260 99 q 231 235 251 197 q 203 268 214 264 q 163 254 185 275 q 144 249 157 249 q 138 69 140 181 q 140 13 140 32 q 136 -17 140 3 q 135 -22 136 -18 q 135 -28 135 -25 q 135 -32 135 -31 q 130 -49 139 -42 q 108 -58 121 -56 q 89 -58 96 -60 q 44 -32 58 -51 q 22 22 31 -12 q -3 149 10 67 m 351 882 q 254 756 297 846 q 151 351 175 590 q 222 403 193 378 q 336 525 292 461 q 444 822 447 682 q 421 889 443 869 q 351 882 394 913 z "},"S":{"ha":461,"x_min":-62,"x_max":522,"o":"m 176 185 q 114 263 157 210 q 45 348 71 315 q -7 431 19 381 q -42 531 -33 482 q -11 740 -61 631 q 56 828 4 772 q 143 896 97 874 q 236 919 189 918 q 326 893 283 919 q 374 824 363 867 q 386 724 386 782 q 374 712 386 715 q 351 712 363 708 q 339 724 339 715 q 315 847 339 808 q 265 885 297 876 q 201 878 232 894 q 126 785 150 851 q 100 669 104 722 q 146 450 90 553 q 219 340 168 408 q 281 254 269 271 q 319 272 300 264 q 369 291 344 283 q 426 303 394 299 q 483 296 458 307 q 517 258 507 285 q 501 242 522 244 q 472 251 479 240 q 457 268 467 263 q 434 273 447 274 q 410 271 421 272 q 383 263 400 269 q 360 253 365 256 q 339 243 354 250 q 301 224 319 233 q 376 33 367 119 q 360 -75 385 -40 q 279 -121 331 -111 q 183 -107 229 -129 q 115 -40 136 -85 q 103 55 96 7 q 142 144 111 103 q 176 185 157 165 m 226 -86 q 274 -87 250 -97 q 296 -50 297 -78 q 257 53 294 -14 q 203 147 211 135 q 163 -19 133 65 q 226 -86 181 -71 z "},"T":{"ha":617,"x_min":-64,"x_max":819,"o":"m -35 782 q -58 806 -54 792 q -54 835 -62 819 q -33 862 -46 850 q -7 883 -21 874 q 128 928 50 921 q 269 908 206 935 q 374 956 333 938 q 683 1025 561 1032 q 800 972 764 1021 q 817 930 814 954 q 815 887 819 906 q 803 842 811 868 q 768 831 797 825 q 750 850 746 836 q 757 951 774 919 q 669 996 733 994 q 469 954 590 997 q 503 918 501 943 q 510 453 510 742 q 510 219 508 238 q 510 192 510 207 q 510 164 510 176 q 510 135 510 151 q 511 107 511 119 q 511 90 511 101 q 511 73 511 79 q 511 57 511 67 q 510 40 511 47 q 508 24 510 33 q 504 8 507 15 q 497 -8 501 0 q 458 -28 489 -26 q 415 -14 426 -29 q 397 13 404 -1 q 383 46 389 26 q 374 76 378 65 q 368 114 371 88 q 364 147 365 140 q 360 183 363 153 q 358 215 358 214 q 350 447 353 293 q 349 774 346 629 q 339 797 344 786 q 269 869 315 842 q 126 804 174 824 q 87 789 100 793 q 49 778 74 785 q 5 772 25 771 q -35 782 -15 774 m 310 888 q 351 857 333 874 q 353 907 351 879 q 310 888 333 899 m -6 822 q -1 806 -8 811 q 22 805 7 801 q 45 810 38 808 q 64 817 53 813 q 226 888 124 839 q 213 892 219 890 q 56 875 133 910 q -6 822 -1 850 z "},"U":{"ha":696,"x_min":-36,"x_max":751,"o":"m -15 313 q -32 511 -31 406 q -1 921 -35 746 q 35 955 3 944 q 99 956 68 965 q 131 921 129 946 q 122 715 131 851 q 114 511 114 579 q 146 160 115 314 q 150 137 147 149 q 159 107 153 125 q 172 76 165 89 q 188 53 178 63 q 210 44 199 44 q 268 114 236 47 q 296 189 283 147 q 354 436 329 296 q 387 647 379 576 q 414 900 394 718 q 415 921 415 917 q 453 959 417 949 q 524 958 489 969 q 560 921 560 947 q 546 629 561 850 q 540 121 524 314 q 560 19 546 46 q 567 6 565 10 q 576 -1 569 3 q 590 -3 582 -4 q 629 28 608 3 q 659 74 646 49 q 681 133 672 99 q 694 186 690 168 q 704 246 697 204 q 735 258 707 261 q 750 246 750 254 q 738 174 742 196 q 722 110 733 153 q 692 39 710 68 q 647 -11 674 10 q 537 -30 597 -47 q 446 39 476 -12 q 406 174 424 79 q 390 324 393 244 q 389 350 390 331 q 369 256 379 301 q 306 76 339 129 q 246 18 282 38 q 168 6 210 -1 q 38 122 85 19 q -15 313 4 196 z "},"V":{"ha":636,"x_min":-42,"x_max":703,"o":"m 42 182 q -1 357 14 265 q -24 554 -15 449 q -33 933 -42 775 q -10 965 -33 953 q 39 976 13 976 q 88 965 65 976 q 114 933 111 953 q 122 744 118 868 q 131 564 126 621 q 169 208 142 397 q 201 72 182 125 q 207 59 206 64 q 213 44 208 54 q 221 28 218 33 q 229 15 224 24 q 240 4 235 7 q 252 -3 244 1 q 266 -7 260 -8 q 282 -4 272 -6 q 372 101 335 11 q 419 246 400 163 q 438 325 429 283 q 339 397 381 357 q 241 544 275 461 q 207 715 207 626 q 215 794 207 754 q 236 873 222 835 q 275 945 250 911 q 331 1000 300 979 q 399 1024 363 1021 q 468 1007 436 1026 q 531 894 511 978 q 544 771 543 839 q 540 653 546 703 q 524 529 535 603 q 492 335 503 393 q 678 275 558 301 q 690 257 703 269 q 665 250 681 247 q 486 301 564 268 q 454 175 471 232 q 426 99 440 132 q 389 30 413 65 q 331 -24 365 -6 q 253 -39 296 -42 q 42 182 110 -28 m 408 389 q 444 361 425 375 q 478 567 461 446 q 483 876 504 764 q 419 993 463 976 q 374 985 399 1000 q 335 949 350 969 q 307 908 319 929 q 267 619 233 775 q 408 389 297 482 z "},"W":{"ha":846,"x_min":-36,"x_max":906,"o":"m 4 158 q -33 439 -31 265 q 11 883 -36 651 q 78 922 19 922 q 124 913 100 922 q 144 883 147 903 q 128 743 140 836 q 110 576 117 650 q 103 433 103 501 q 125 185 103 313 q 150 83 135 118 q 169 46 160 58 q 179 38 174 40 q 183 35 181 36 q 185 36 183 35 q 188 40 186 38 q 190 43 189 42 q 193 47 192 44 q 196 50 194 49 q 215 86 207 65 q 243 168 231 117 q 281 367 257 221 q 317 590 299 481 q 331 760 318 676 q 356 793 333 783 q 406 803 379 803 q 456 792 431 803 q 481 760 481 782 q 474 435 472 515 q 504 138 476 233 q 550 33 525 63 q 590 14 574 10 q 625 43 606 18 q 678 154 651 75 q 714 283 699 215 q 718 301 714 285 q 650 375 681 333 q 553 685 558 501 q 618 958 546 868 q 667 994 639 985 q 728 992 696 1004 q 793 892 775 971 q 807 558 822 761 q 772 306 796 421 q 807 282 789 293 q 861 265 847 260 q 893 258 879 271 q 886 242 904 249 q 764 268 836 224 q 757 239 760 247 q 710 90 735 147 q 635 -6 678 19 q 506 -8 569 -42 q 400 94 442 26 q 329 333 349 182 q 318 268 324 299 q 268 78 297 140 q 247 38 258 56 q 219 8 235 19 q 164 -6 199 -7 q 4 158 56 -4 m 686 401 q 726 347 704 372 q 753 554 744 442 q 751 828 767 714 q 750 841 751 831 q 748 854 749 851 q 746 867 747 857 q 743 882 744 878 q 740 895 742 886 q 736 909 738 904 q 732 922 735 914 q 726 934 729 929 q 719 944 724 939 q 711 956 715 950 q 661 940 689 979 q 635 892 646 921 q 607 640 592 790 q 686 401 621 503 m 185 33 z "},"X":{"ha":554,"x_min":-71,"x_max":611,"o":"m -64 -29 q 107 367 6 174 q 51 858 49 629 q 76 892 53 881 q 128 904 100 904 q 180 892 156 904 q 206 858 204 881 q 229 581 224 635 q 476 915 342 757 q 513 919 488 929 q 518 901 528 913 q 239 506 364 717 q 272 315 254 403 q 336 97 301 171 q 388 19 356 56 q 401 4 400 4 q 421 6 408 0 q 461 42 439 15 q 564 256 521 111 q 578 265 565 263 q 600 262 590 267 q 607 249 610 257 q 471 -7 557 57 q 396 -30 439 -29 q 315 -13 353 -31 q 250 32 278 4 q 129 272 171 110 q 124 292 128 274 q -11 -37 46 131 q -46 -49 -17 -53 q -64 -29 -69 -44 z "},"Y":{"ha":601,"x_min":-51,"x_max":672,"o":"m 61 346 q -35 589 -11 415 q -36 861 -51 707 q 4 899 -33 888 q 77 899 42 910 q 113 861 113 888 q 109 789 111 840 q 106 710 107 738 q 104 642 104 683 q 107 565 104 600 q 128 425 111 490 q 150 367 139 385 q 192 365 167 343 q 204 378 199 371 q 215 394 210 385 q 222 411 219 404 q 229 431 225 418 q 235 448 233 443 q 240 468 236 453 q 244 485 243 483 q 271 636 261 549 q 286 784 278 685 q 300 933 294 883 q 304 940 301 938 q 336 961 313 954 q 376 968 360 968 q 451 926 442 968 q 499 403 511 669 q 492 311 496 351 q 649 285 574 313 q 654 264 671 275 q 622 258 638 254 q 489 279 554 282 q 406 -22 469 93 q 261 -135 351 -119 q 180 -123 218 -142 q 124 -64 142 -104 q 144 108 90 7 q 264 242 188 190 q 367 292 310 274 q 354 539 367 392 q 333 728 347 624 q 322 622 328 665 q 300 494 314 553 q 258 374 279 407 q 166 313 225 322 q 61 346 107 304 m 360 160 q 365 246 364 200 q 268 179 314 221 q 176 46 200 117 q 170 -36 161 11 q 215 -101 179 -83 q 321 -12 278 -132 q 360 160 350 65 z "},"Z":{"ha":576,"x_min":-62,"x_max":642,"o":"m 111 -49 q 32 -60 81 -61 q -40 -35 -17 -58 q -59 4 -57 -18 q -44 43 -61 26 q 10 60 -25 58 q 68 58 44 63 q 88 57 78 58 q 153 132 118 88 q 317 411 250 253 q 263 399 288 404 q 226 403 236 390 q 224 416 221 410 q 235 424 228 422 q 331 446 281 436 q 351 507 342 478 q 406 721 392 629 q 371 926 428 867 q 324 951 350 947 q 270 943 297 954 q 221 916 243 932 q 179 882 199 900 q 93 707 107 808 q 78 694 92 697 q 53 694 65 690 q 43 707 42 699 q 161 921 58 840 q 217 956 188 942 q 280 978 247 971 q 345 978 313 985 q 406 951 378 972 q 479 471 572 824 q 478 469 479 471 q 478 468 478 468 q 519 471 500 469 q 536 468 526 472 q 546 457 546 464 q 519 442 546 443 q 469 438 497 440 q 233 31 397 196 q 294 16 256 26 q 349 1 333 6 q 583 43 510 -40 q 621 47 594 57 q 629 28 640 40 q 580 -15 607 1 q 521 -37 553 -32 q 462 -44 489 -43 q 396 -39 435 -46 q 333 -26 357 -32 q 267 -9 310 -21 q 207 7 225 3 q 111 -49 160 -35 m 10 28 q 8 27 10 28 q 4 23 6 26 q 7 11 3 19 q 15 12 8 13 q 21 11 21 11 q 56 28 36 14 q 54 28 54 28 q 46 28 53 28 q 33 30 39 29 q 21 30 28 31 q 10 28 14 29 z "},"[":{"ha":451,"x_min":68,"x_max":383,"o":"m 378 -72 q 382 -86 382 -79 q 377 -99 382 -93 q 366 -108 372 -104 q 353 -114 360 -112 q 258 -124 308 -131 q 168 -92 207 -118 q 89 43 107 -50 q 75 197 82 82 q 69 363 71 282 q 82 696 68 538 q 144 1011 99 908 q 240 1086 175 1076 q 332 1056 303 1096 q 317 1039 340 1043 q 285 1043 293 1035 q 265 1053 274 1053 q 247 1040 256 1053 q 235 1016 239 1026 q 226 994 231 1006 q 206 858 214 949 q 203 329 188 624 q 222 71 211 154 q 258 -25 232 4 q 288 -47 271 -42 q 307 -53 301 -53 q 378 -72 360 -49 z "},"\\":{"ha":490,"x_min":68,"x_max":425,"o":"m 421 -107 q 403 -133 424 -124 q 363 -144 382 -143 q 317 -140 342 -146 q 288 -117 292 -133 q 163 439 242 50 q 108 714 133 582 q 85 850 93 794 q 69 994 69 958 q 104 1018 69 1017 q 147 1000 139 1019 q 190 857 161 968 q 225 722 204 807 q 290 449 242 650 q 333 277 303 399 q 383 67 363 156 q 421 -107 404 -22 z "},"]":{"ha":439,"x_min":61,"x_max":371,"o":"m 356 344 q 360 288 357 332 q 365 225 364 244 q 368 171 367 206 q 369 108 369 136 q 365 51 368 79 q 236 -162 349 -117 q 192 -167 217 -169 q 151 -153 167 -165 q 138 -126 136 -140 q 156 -103 140 -112 q 233 108 229 -61 q 233 187 235 146 q 228 281 232 228 q 224 360 225 333 q 210 621 218 503 q 190 872 203 732 q 174 994 185 936 q 154 1035 167 1028 q 107 1031 144 1042 q 72 1036 83 1022 q 82 1056 63 1049 q 218 1060 169 1089 q 250 1025 236 1049 q 268 988 264 1001 q 281 940 272 974 q 328 650 307 839 q 356 344 344 494 z "},"^":{"ha":347,"x_min":57,"x_max":281,"o":"m 276 843 q 258 818 279 826 q 218 810 236 810 q 163 836 172 810 q 146 811 153 821 q 114 800 136 800 q 82 811 92 800 q 82 899 57 844 q 144 971 107 954 q 206 978 168 983 q 257 947 243 972 q 268 900 263 938 q 272 872 269 890 q 276 843 275 853 z "},"_":{"ha":424,"x_min":64,"x_max":356,"o":"m 311 42 q 340 36 325 42 q 354 18 354 31 q 311 -7 354 -6 q 263 -8 304 -7 q 201 -11 222 -10 q 165 -15 190 -11 q 127 -19 139 -18 q 90 -18 115 -19 q 74 -9 82 -17 q 74 6 65 -1 q 183 35 100 26 q 311 42 249 42 z "},"`":{"ha":238,"x_min":61,"x_max":172,"o":"m 100 985 q 110 987 100 985 q 135 987 119 989 q 161 976 150 985 q 168 954 172 968 q 160 856 154 907 q 125 831 163 835 q 76 849 83 829 q 78 968 63 910 q 100 985 81 981 z "},"a":{"ha":540,"x_min":-43,"x_max":583,"o":"m 536 260 q 549 269 538 267 q 572 267 561 271 q 581 257 582 264 q 501 39 554 118 q 429 -7 471 -6 q 338 43 372 -8 q 293 281 286 119 q 293 287 293 283 q 293 292 293 290 q 267 194 278 231 q 261 177 265 190 q 255 158 257 164 q 249 140 253 151 q 242 121 244 128 q 234 103 239 114 q 225 85 229 92 q 215 69 221 78 q 203 54 210 61 q 140 18 176 24 q 68 31 104 13 q -20 148 1 65 q -24 311 -42 231 q 44 458 -6 393 q 165 549 93 524 q 332 544 251 579 q 350 561 338 554 q 363 567 354 565 q 400 572 379 572 q 450 562 424 572 q 474 531 476 551 q 459 447 469 506 q 442 345 449 389 q 432 261 436 301 q 424 131 425 172 q 429 69 424 94 q 440 33 436 39 q 493 129 463 51 q 536 260 514 181 m 257 338 q 292 454 282 426 q 247 492 271 489 q 168 444 215 496 q 89 228 90 360 q 111 108 88 158 q 142 65 125 78 q 152 60 150 60 q 158 68 154 61 q 176 94 175 93 q 197 140 188 117 q 216 191 207 163 q 230 237 225 219 q 244 290 235 254 q 257 338 254 325 z "},"b":{"ha":640,"x_min":-108,"x_max":690,"o":"m 635 218 q 675 222 647 232 q 682 203 690 214 q 485 71 599 113 q 444 58 467 64 q 342 -117 413 -49 q 92 -207 236 -217 q -42 -165 17 -201 q -89 -76 -108 -124 q 13 14 -67 -18 q -6 90 4 33 q -19 214 -15 147 q -12 458 -26 322 q 81 944 14 726 q 108 967 86 961 q 150 971 129 972 q 188 960 168 969 q 206 935 208 951 q 178 785 197 881 q 144 609 158 689 q 124 458 131 529 q 114 356 118 408 q 268 519 178 500 q 378 490 331 532 q 449 382 426 447 q 460 115 488 265 q 456 97 457 107 q 635 218 558 136 m 107 -146 q 238 -94 182 -146 q 329 36 294 -43 q 228 24 326 36 q 106 7 135 14 q 97 -18 104 -8 q 67 -33 89 -32 q 35 -24 46 -35 q 33 -22 33 -24 q 32 -21 32 -21 q 7 -39 18 -29 q -14 -86 -19 -62 q 14 -122 -10 -108 q 107 -146 51 -146 m 363 142 q 365 367 386 271 q 329 464 351 428 q 282 488 310 496 q 236 456 261 482 q 135 258 172 386 q 111 142 118 204 q 108 127 110 136 q 107 116 107 118 q 107 111 107 114 q 107 106 107 108 q 107 100 107 103 q 107 42 107 44 q 108 40 108 40 q 128 43 118 42 q 239 58 167 50 q 343 71 311 65 q 363 142 356 107 z "},"c":{"ha":418,"x_min":-57,"x_max":464,"o":"m 413 263 q 428 273 415 271 q 452 269 442 275 q 460 256 463 264 q 382 79 429 161 q 281 -60 325 -22 q 151 -96 222 -111 q 25 3 75 -81 q -18 318 -56 133 q 6 401 -8 363 q 42 476 19 439 q 101 539 65 514 q 181 569 136 564 q 247 558 218 574 q 286 508 275 543 q 293 343 304 446 q 279 329 293 333 q 252 329 265 325 q 240 343 239 333 q 228 500 249 446 q 221 513 226 504 q 214 524 215 521 l 213 525 q 213 524 213 525 q 203 509 208 518 q 192 492 197 500 q 183 476 188 483 q 119 236 131 363 q 154 -1 110 111 q 215 -58 182 -74 q 233 -48 224 -56 q 249 -35 243 -40 q 264 -17 254 -29 q 277 -1 274 -6 q 290 18 281 3 q 301 35 300 33 q 413 263 371 139 z "},"d":{"ha":715,"x_min":-43,"x_max":758,"o":"m 710 250 q 724 259 711 257 q 747 257 736 261 q 756 246 758 253 q 697 90 736 157 q 581 -19 646 0 q 489 -21 535 -33 q 410 28 443 -8 q 321 254 342 101 q 313 361 314 306 q 298 308 307 342 q 281 247 289 275 q 267 194 274 219 q 261 177 265 190 q 255 158 257 164 q 249 140 253 151 q 242 121 244 128 q 234 103 239 114 q 225 85 229 92 q 215 69 221 78 q 203 54 210 61 q 140 18 176 24 q 68 31 104 13 q -20 148 1 65 q -24 311 -42 231 q 44 458 -6 393 q 165 549 93 524 q 324 547 246 578 q 381 768 340 676 q 536 953 444 913 q 647 957 599 981 q 686 879 688 936 q 667 801 685 844 q 636 734 650 758 q 593 665 622 710 q 472 500 550 600 q 468 224 456 361 q 511 38 479 100 q 554 4 531 0 q 599 29 574 6 q 710 250 663 89 m 499 649 q 485 582 490 617 q 550 676 522 633 q 591 742 578 719 q 619 806 604 764 q 635 879 635 847 q 614 925 635 921 q 593 907 606 926 q 554 829 575 879 q 499 649 526 764 m 257 338 q 292 454 282 426 q 247 492 271 489 q 168 444 215 496 q 89 228 90 360 q 111 108 88 158 q 142 65 125 78 q 152 60 150 60 q 158 68 154 61 q 176 94 175 93 q 197 140 188 117 q 216 191 207 163 q 230 237 225 219 q 244 290 235 254 q 257 338 254 325 z "},"e":{"ha":358,"x_min":-39,"x_max":406,"o":"m 356 263 q 388 271 363 276 q 400 256 406 267 q 317 99 368 172 q 285 57 299 72 q 251 25 272 42 q 204 1 229 8 q 58 24 125 -24 q -24 154 -8 72 q -22 317 -39 235 q 43 458 -6 400 q 171 533 94 519 q 240 528 206 539 q 278 485 274 517 q 261 428 281 457 q 215 388 242 399 q 143 388 185 376 q 111 201 111 300 q 113 169 111 186 q 118 126 114 151 q 129 82 122 100 q 147 47 136 64 q 174 31 158 31 q 213 43 190 31 q 297 146 249 68 q 356 263 332 200 m 171 446 q 156 415 163 432 q 192 414 178 407 q 214 436 204 419 q 225 467 224 453 q 223 484 225 474 q 215 494 221 494 q 199 483 211 496 q 171 446 183 469 z "},"f":{"ha":386,"x_min":-26,"x_max":435,"o":"m 394 267 q 426 261 410 272 q 424 244 433 253 q 372 215 400 231 q 310 183 344 200 q 257 157 275 167 q 181 114 210 132 q 147 89 153 96 q 154 75 138 78 q 157 74 156 75 l 165 72 q 276 7 240 56 q 275 -104 317 -49 q 164 -162 228 -164 q 43 -94 93 -161 q -13 35 0 -37 q -24 200 -26 108 q 25 526 -17 401 q 58 552 32 546 q 108 557 83 558 q 152 545 129 556 q 174 515 175 535 q 161 435 168 483 q 149 353 154 388 q 138 274 143 318 q 131 192 132 229 q 128 125 129 156 q 137 131 132 128 q 143 135 142 135 q 265 203 176 157 q 394 267 378 260 m 201 21 q 136 47 181 36 q 132 47 135 47 q 129 49 129 49 q 149 -74 132 -35 q 182 -115 167 -112 q 222 -94 200 -119 q 238 -33 246 -64 q 201 21 231 -1 z "},"g":{"ha":564,"x_min":-43,"x_max":611,"o":"m 563 242 q 593 250 568 256 q 607 235 611 246 q 593 210 601 222 q 571 187 585 199 q 548 169 557 175 q 521 151 539 163 q 497 135 503 139 q 467 114 485 126 q 460 42 464 76 q 407 -126 444 -67 q 300 -221 358 -203 q 236 -224 271 -231 q 182 -192 201 -217 q 294 40 110 -97 q 336 72 313 56 q 331 274 338 174 q 321 390 325 344 q 317 378 318 382 q 294 293 311 357 q 267 194 278 229 q 261 177 265 190 q 255 158 257 164 q 249 140 253 151 q 242 121 244 128 q 234 103 239 114 q 225 85 229 92 q 215 69 221 78 q 203 54 210 61 q 140 18 176 24 q 68 31 104 13 q -20 148 1 65 q -24 311 -42 231 q 44 458 -6 393 q 165 549 93 524 q 311 551 238 575 q 376 581 324 581 q 439 551 428 581 q 447 524 443 539 q 453 495 451 508 q 458 465 456 482 q 460 435 460 447 q 463 404 461 424 q 464 375 464 385 q 469 199 471 288 q 468 160 469 178 q 501 182 488 172 q 512 190 503 183 q 522 197 521 196 q 531 204 524 199 q 542 213 539 210 q 549 221 544 215 q 557 231 554 226 q 563 242 560 236 m 257 338 q 292 454 282 426 q 247 492 271 489 q 168 444 215 496 q 89 228 90 360 q 111 108 88 158 q 142 65 125 78 q 152 60 150 60 q 158 68 154 61 q 176 94 175 93 q 197 140 188 117 q 216 191 207 163 q 230 237 225 219 q 244 290 235 254 q 257 338 254 325 m 335 -6 q 336 24 336 6 q 226 -169 183 -89 q 277 -191 246 -203 q 319 -146 308 -179 q 335 -6 332 -103 z "},"h":{"ha":511,"x_min":-28,"x_max":558,"o":"m 501 210 q 538 219 508 226 q 551 201 557 214 q 486 56 511 103 q 480 45 485 54 q 474 34 475 36 q 469 24 474 32 q 462 13 464 15 q 455 3 460 10 q 447 -8 450 -4 q 438 -16 443 -11 q 428 -24 433 -21 q 418 -29 424 -26 q 407 -35 413 -32 q 353 -33 381 -42 q 307 -4 326 -24 q 250 117 251 54 q 251 158 249 138 q 258 213 253 179 q 264 254 263 246 q 279 399 274 332 q 281 418 279 400 q 283 440 283 436 q 281 458 283 443 q 269 470 276 469 q 253 463 261 471 q 238 449 244 456 q 226 436 232 443 q 165 315 192 389 q 107 54 125 203 q 107 39 107 46 q 106 24 107 35 q 106 8 106 14 q 103 -5 106 3 q 97 -18 101 -12 q 67 -33 89 -32 q 33 -24 44 -35 q 24 -11 28 -18 q 15 6 19 -4 q 9 21 11 15 q 4 40 7 26 q 1 56 1 53 q -3 75 0 60 q -6 90 -6 90 q -19 214 -15 147 q -14 458 -26 322 q 81 944 13 726 q 107 967 85 961 q 150 971 129 972 q 188 960 168 969 q 206 935 208 951 q 177 785 196 881 q 144 609 158 689 q 122 458 131 529 q 111 307 115 385 q 125 344 117 326 q 285 500 190 515 q 382 288 383 483 q 378 209 382 260 q 375 143 375 158 q 374 110 375 133 q 372 72 372 86 q 371 56 372 69 q 369 32 369 42 q 372 15 369 22 q 390 0 379 -4 q 408 21 396 3 q 443 81 422 42 q 501 210 465 122 z "},"i":{"ha":222,"x_min":-32,"x_max":264,"o":"m 218 260 q 249 269 222 274 q 264 257 264 265 q 183 39 238 118 q 113 -7 154 -6 q 21 43 56 -8 q -24 281 -31 119 q 10 531 -19 388 q 83 572 18 572 q 133 562 107 572 q 157 531 160 551 q 146 465 153 506 q 134 395 139 424 q 124 330 129 367 q 115 261 118 293 q 107 131 107 172 q 113 69 107 94 q 122 33 119 39 q 176 129 146 51 q 218 260 197 181 m 96 638 q 60 654 69 638 q 53 719 46 678 q 99 747 56 747 q 146 725 139 749 q 146 713 149 719 q 140 684 143 704 q 132 654 136 664 q 96 638 126 639 z "},"j":{"ha":218,"x_min":-236,"x_max":267,"o":"m 217 242 q 249 250 224 256 q 261 235 265 246 q 252 217 258 225 q 238 200 246 208 q 223 185 231 192 q 206 171 215 178 q 188 158 196 164 q 169 146 181 153 q 153 135 158 139 q 121 114 140 126 q 114 42 118 76 q 61 -126 100 -67 q -44 -221 13 -203 q -109 -224 -75 -231 q -162 -192 -143 -217 q -51 40 -235 -97 q -8 72 -32 56 q -15 274 -8 174 q -26 413 -22 361 q -33 456 -28 422 q -37 499 -37 489 q -37 542 -37 510 q -6 576 -35 565 q 55 579 24 586 q 93 551 86 572 q 104 519 100 536 q 111 482 108 503 q 115 449 114 461 q 117 410 115 436 q 119 375 118 383 q 125 199 125 288 q 124 160 124 178 q 157 182 142 172 q 167 190 158 183 q 177 197 175 196 q 186 204 179 199 q 196 213 193 210 q 203 221 199 215 q 212 231 208 226 q 217 242 215 236 m -10 -6 q -8 24 -10 6 q -119 -169 -161 -89 q -67 -191 -99 -203 q -26 -146 -36 -179 q -10 -6 -14 -103 m 14 633 q -21 643 -11 632 q -35 693 -32 657 q -22 711 -36 703 q 10 719 -11 718 q 42 711 28 719 q 54 693 56 703 q 53 679 54 690 q 49 660 51 668 q 43 647 47 653 q 14 633 35 635 z "},"k":{"ha":458,"x_min":-28,"x_max":501,"o":"m 456 253 q 488 261 461 267 q 501 250 500 258 q 500 246 501 247 q 408 63 464 140 q 342 2 381 24 q 261 -15 304 -19 q 107 97 176 -7 q 107 39 107 47 q 106 24 107 35 q 106 8 106 14 q 103 -5 106 3 q 97 -18 101 -12 q 67 -33 89 -32 q 33 -24 44 -35 q 24 -11 28 -18 q 15 6 19 -4 q 9 21 11 15 q 4 40 7 26 q 1 56 1 53 q -3 75 0 60 q -6 90 -6 90 q -19 214 -15 147 q -14 458 -26 322 q 81 944 13 726 q 107 967 85 961 q 150 971 129 972 q 188 960 168 969 q 206 935 208 951 q 177 785 196 881 q 144 609 158 689 q 122 458 131 529 q 117 400 119 431 q 142 426 129 414 q 221 481 176 461 q 304 490 265 501 q 335 472 324 486 q 340 439 346 457 q 281 372 332 406 q 146 319 222 333 q 153 311 150 315 q 181 235 163 286 q 211 158 200 185 q 282 36 251 68 q 332 36 303 14 q 388 106 361 58 q 431 192 414 154 q 456 253 449 229 m 253 457 q 132 347 179 426 q 229 381 185 356 q 276 418 260 397 q 292 457 299 442 q 253 457 285 471 z "},"l":{"ha":378,"x_min":-35,"x_max":418,"o":"m 371 250 q 403 258 375 264 q 418 246 418 254 q 358 90 397 157 q 308 21 336 50 q 243 -19 279 -8 q 150 -21 196 -33 q 72 28 104 -8 q -18 254 3 101 q -19 519 -35 379 q 42 768 -3 667 q 199 953 107 913 q 308 957 260 981 q 347 879 350 936 q 338 825 346 853 q 314 765 331 797 q 287 717 297 733 q 254 665 276 700 q 133 500 213 600 q 131 224 117 361 q 174 38 142 100 q 217 4 192 0 q 260 29 235 6 q 371 250 325 89 m 160 649 q 146 582 153 617 q 211 676 185 633 q 242 725 233 710 q 267 771 251 740 q 290 828 283 801 q 297 879 297 854 q 276 925 296 921 q 256 907 267 926 q 215 829 236 879 q 160 649 189 764 z "},"m":{"ha":736,"x_min":-35,"x_max":779,"o":"m 726 238 q 742 248 729 246 q 767 245 756 250 q 776 229 779 240 q 731 81 750 129 q 658 -14 697 4 q 598 -19 632 -25 q 544 7 564 -12 q 511 110 510 42 q 526 258 514 163 q 542 392 539 354 q 544 463 544 415 q 535 518 544 507 q 520 524 528 524 q 503 515 513 524 q 485 497 493 507 q 470 475 478 488 q 458 454 463 463 q 450 440 453 446 q 410 322 432 403 q 382 213 389 254 q 381 160 382 185 q 350 128 379 138 q 292 128 321 119 q 264 160 264 138 q 267 261 263 193 q 272 364 272 329 q 264 458 271 429 q 258 475 260 472 q 251 468 254 471 q 228 435 240 457 q 168 254 196 374 q 149 156 158 210 q 142 128 149 153 q 136 90 136 103 q 136 -1 146 26 q 99 -22 131 -21 q 56 -14 68 -24 q 35 1 43 -8 q 20 29 26 11 q 11 55 14 47 q 3 87 8 63 q -1 111 -1 111 q -19 243 -12 168 q -7 517 -33 419 q 21 539 -1 533 q 64 543 43 544 q 102 533 85 542 q 121 507 119 524 q 119 433 122 481 q 117 375 117 386 q 118 258 115 313 q 124 286 121 274 q 158 400 140 356 q 211 489 183 464 q 272 506 243 514 q 322 472 300 497 q 353 417 343 447 q 367 363 361 392 q 410 471 388 432 q 442 515 424 496 q 484 546 461 535 q 533 555 507 557 q 585 533 560 553 q 640 425 626 503 q 649 279 651 361 q 644 203 647 253 q 639 135 640 153 q 637 97 639 128 q 635 58 635 65 q 636 21 635 51 l 638 21 l 638 19 q 640 22 639 21 q 661 50 650 32 q 686 106 674 72 q 726 238 703 149 z "},"n":{"ha":521,"x_min":-25,"x_max":561,"o":"m 507 243 q 522 256 508 253 q 548 256 536 260 q 558 243 560 251 q 521 89 547 161 q 505 46 511 60 q 483 13 499 32 q 449 -15 468 -7 q 387 -22 422 -28 q 331 4 351 -17 q 285 136 289 51 q 288 228 283 179 q 299 335 292 276 q 310 425 307 393 q 310 467 313 458 q 290 494 304 492 q 244 456 275 496 q 183 333 215 415 q 108 82 149 246 q 108 65 108 72 q 101 14 108 63 q 62 -12 99 -11 q 14 7 25 -12 q 3 27 7 17 q -4 53 -1 38 q -8 74 -7 68 q -12 102 -10 81 q -14 124 -14 124 q -22 242 -19 171 q -8 488 -25 378 q 15 516 -4 507 q 58 525 35 525 q 103 516 81 525 q 125 488 126 507 q 110 278 113 344 q 146 375 126 331 q 172 428 160 407 q 203 478 183 450 q 250 517 224 506 q 306 524 276 529 q 341 504 325 519 q 365 476 357 489 q 383 439 372 463 q 414 300 407 389 q 416 219 415 272 q 417 156 417 165 q 418 81 418 138 q 422 24 419 31 q 425 15 424 19 q 425 17 425 17 q 436 28 428 21 q 447 40 444 36 q 472 100 457 58 q 507 243 497 168 z "},"o":{"ha":407,"x_min":-43,"x_max":458,"o":"m 410 261 q 444 260 424 271 q 444 242 457 250 q 331 196 393 208 q 293 85 319 136 q 273 50 283 65 q 249 19 263 35 q 219 -8 235 3 q 185 -25 204 -18 q 144 -32 165 -32 q 49 4 88 -32 q -7 99 11 40 q 0 319 -33 183 q -14 475 -43 396 q 42 553 3 522 q 129 586 81 585 q 225 559 183 589 q 290 481 267 529 q 324 383 313 433 q 338 283 336 333 q 335 229 338 257 q 410 261 375 240 m 189 22 q 274 189 253 81 q 111 219 185 183 q 101 111 101 163 q 114 28 100 57 q 150 0 129 -3 q 189 22 167 1 m 279 219 q 279 319 285 269 q 236 474 271 406 q 176 542 213 517 q 101 544 140 567 q 41 463 56 517 q 44 360 26 408 q 86 361 67 364 q 122 345 107 357 q 132 314 138 333 q 118 258 125 286 q 279 219 186 211 z "},"p":{"ha":542,"x_min":-28,"x_max":589,"o":"m 533 243 q 572 253 543 260 q 585 236 589 246 q 522 179 561 193 q 422 164 482 165 q 408 128 415 146 q 256 3 354 3 q 192 19 222 3 q 154 63 161 36 q 142 -47 147 6 q 138 -75 140 -57 q 136 -101 136 -93 q 136 -103 136 -101 q 136 -104 136 -104 q 139 -197 139 -150 q 136 -241 139 -203 q 138 -285 133 -279 q 125 -304 140 -297 q 94 -312 110 -311 q 39 -292 51 -317 q 15 -207 26 -268 q 3 -108 8 -169 q -14 83 -11 19 q -10 475 -28 339 q 15 506 -7 496 q 63 515 38 515 q 110 506 86 515 q 133 475 135 496 q 126 211 126 292 q 143 294 135 256 q 217 490 175 435 q 287 536 246 528 q 367 515 328 544 q 430 423 410 479 q 449 309 450 367 q 431 193 447 251 q 533 243 507 197 m 260 75 q 311 156 289 103 q 247 128 274 149 q 228 97 231 115 q 240 65 225 79 q 243 63 243 63 q 260 75 249 64 m 333 218 q 347 389 357 300 q 332 472 343 439 q 314 504 325 496 q 276 490 300 515 q 242 440 257 472 q 222 390 228 408 q 206 332 215 371 q 167 144 186 261 q 160 101 164 125 q 163 106 161 104 q 325 190 201 178 q 333 218 329 203 z "},"q":{"ha":582,"x_min":-43,"x_max":629,"o":"m 614 254 q 624 247 621 251 q 624 235 628 242 q 478 111 544 176 q 446 79 461 94 q 418 46 421 53 q 426 24 415 33 q 457 5 436 14 q 481 -7 478 -4 q 542 -114 540 -46 q 486 -222 544 -182 q 353 -226 418 -265 q 278 -97 303 -196 q 265 190 249 19 q 263 181 264 186 q 247 133 253 150 q 230 93 242 117 q 203 54 218 69 q 140 19 176 25 q 68 31 104 13 q -20 148 1 65 q -24 311 -42 231 q 44 458 -6 393 q 165 549 93 524 q 331 544 250 579 q 344 586 336 567 q 372 609 350 603 q 417 614 394 615 q 456 603 436 613 q 474 576 476 593 q 459 490 468 538 q 442 403 450 442 q 424 317 433 365 q 410 229 415 268 q 396 88 400 158 q 406 97 400 90 q 415 106 413 103 q 469 156 442 132 q 582 249 521 203 q 614 254 597 260 m 257 338 q 292 454 282 426 q 247 492 271 489 q 168 444 215 496 q 89 228 90 360 q 111 108 88 158 q 142 65 125 78 q 152 60 150 60 q 158 68 154 61 q 176 94 175 93 q 197 140 188 117 q 216 191 207 163 q 230 237 225 219 q 244 290 235 254 q 257 338 254 325 m 424 -14 q 415 -10 421 -12 q 403 -4 408 -7 q 393 1 399 -1 q 396 -75 393 -37 q 396 -87 396 -76 q 397 -102 396 -99 q 398 -117 397 -106 q 399 -133 399 -128 q 401 -147 400 -137 q 405 -162 403 -156 q 410 -175 407 -168 q 416 -188 413 -182 q 424 -199 419 -194 q 466 -185 443 -219 q 492 -126 489 -150 q 424 -14 499 -56 z "},"r":{"ha":393,"x_min":-56,"x_max":433,"o":"m 386 243 q 399 255 388 251 q 422 255 411 258 q 432 243 433 251 q 376 44 417 138 q 361 12 365 21 q 345 -19 357 3 q 323 -50 333 -40 q 297 -70 313 -60 q 264 -83 282 -81 q 176 -69 208 -92 q 132 19 147 -49 q 139 221 113 101 q 92 215 115 214 q -10 254 29 219 q -51 348 -47 289 q -31 451 -54 407 q 43 531 -6 503 q 146 549 92 560 q 187 526 172 543 q 204 485 201 508 q 204 438 207 461 q 193 393 201 415 q 82 258 164 307 q 89 251 86 254 q 156 261 108 235 q 219 274 178 278 q 259 263 239 272 q 278 236 279 254 q 269 181 275 214 q 259 118 264 149 q 253 63 254 88 q 251 -21 250 19 q 256 -51 251 -28 q 257 -56 257 -54 q 263 -53 261 -54 q 311 13 283 -42 q 344 85 329 47 q 386 243 374 160 m 53 318 q 63 289 56 303 q 143 400 119 332 q 147 494 164 461 q 138 509 142 507 q 125 506 135 511 q 96 476 113 496 q 57 401 69 444 q 53 318 44 358 z "},"s":{"ha":294,"x_min":-46,"x_max":346,"o":"m 336 268 q 328 250 344 256 q 199 188 257 226 q 204 182 203 182 q 264 56 263 111 q 249 -20 264 17 q 204 -76 235 -57 q 88 -95 147 -114 q 17 -11 28 -76 q 53 110 6 49 q 83 146 67 128 q 65 166 79 151 q 45 187 51 181 q 28 206 39 193 q 9 229 17 218 q -4 251 1 240 q -29 401 -44 319 q 49 518 -17 472 q 182 550 118 567 q 217 535 201 546 q 244 509 233 525 q 258 474 256 493 q 249 461 260 465 q 225 460 238 457 q 211 474 213 464 q 188 513 208 497 q 144 521 168 528 q 82 471 106 511 q 69 430 71 453 q 76 381 68 407 q 92 339 85 356 q 114 299 100 322 q 174 217 132 265 q 304 272 235 253 q 336 268 328 279 m 110 -68 q 150 -62 136 -78 q 165 -24 164 -47 q 163 19 165 0 q 113 115 151 68 q 69 44 81 81 q 70 -21 60 17 q 110 -68 81 -58 z "},"t":{"ha":378,"x_min":-439,"x_max":1110,"o":"m 1065 857 q 1060 735 1108 814 q 1022 726 1051 719 q 1010 743 1006 733 q 1029 831 1044 800 q 965 869 1017 854 q 774 888 886 892 q 335 815 601 881 q 254 665 318 764 q 133 500 213 600 q 129 224 117 361 q 174 38 142 100 q 217 4 192 0 q 260 29 235 6 q 371 250 324 89 q 386 259 374 257 q 409 257 399 261 q 418 246 419 253 q 358 90 397 157 q 243 -19 307 0 q 150 -21 196 -33 q 71 28 104 -8 q -18 254 3 101 q -19 519 -35 379 q 32 742 -4 650 q -218 714 -108 714 q -260 715 -243 714 q -305 717 -276 715 q -353 726 -333 719 q -392 744 -372 733 q -424 772 -412 754 q -437 814 -435 790 q -414 828 -439 829 q -390 814 -393 826 q -375 774 -389 790 q -335 752 -361 758 q -292 744 -308 746 q -246 742 -275 742 q -56 756 -158 739 q 46 775 -8 763 q 199 953 110 914 q 308 957 260 981 q 347 879 350 936 q 343 850 347 865 q 614 903 493 886 q 944 906 821 931 q 1065 857 1035 889 m 211 676 q 281 803 264 760 q 238 792 267 799 q 197 781 210 785 q 160 649 181 731 q 146 582 153 617 q 211 676 185 633 m 292 838 q 296 879 297 860 q 276 925 296 921 q 256 907 267 926 q 215 829 236 879 q 210 815 215 828 q 278 833 256 828 q 283 834 281 833 q 288 835 285 835 q 292 838 290 836 z "},"u":{"ha":536,"x_min":-28,"x_max":579,"o":"m 532 260 q 545 269 533 267 q 567 267 557 271 q 576 257 578 264 q 497 39 550 118 q 425 -7 467 -6 q 333 43 368 -8 q 289 281 282 119 q 290 308 290 293 q 288 299 290 306 q 283 288 285 292 q 196 74 228 129 q 126 19 169 25 q 28 57 71 14 q -17 144 -7 93 q -26 265 -28 196 q 4 510 -25 376 q 72 549 14 549 q 119 539 94 549 q 140 510 143 529 q 129 425 138 485 q 115 322 121 365 q 108 236 110 278 q 113 115 104 158 q 129 67 118 82 l 131 64 q 144 82 144 82 q 161 113 153 97 q 177 147 169 129 q 191 180 185 165 q 205 215 197 194 q 217 249 213 236 q 230 285 222 261 q 242 318 238 308 q 288 449 261 372 q 293 467 289 454 q 300 488 297 479 q 307 506 303 496 q 316 526 311 517 q 328 542 321 535 q 397 572 343 572 q 447 562 419 572 q 469 531 474 551 q 456 447 465 506 q 439 345 446 389 q 429 261 432 301 q 421 131 421 172 q 426 69 421 94 q 436 33 433 39 q 490 129 460 51 q 532 260 511 181 z "},"v":{"ha":458,"x_min":-26,"x_max":507,"o":"m 458 276 q 494 279 469 289 q 500 263 507 272 q 342 208 438 194 q 329 168 335 185 q 231 1 286 42 q 137 -17 185 -28 q 56 36 89 -7 q 16 103 32 65 q -8 172 0 140 q -20 253 -17 204 q -24 328 -24 301 q -24 411 -25 356 q -25 485 -24 467 q 0 517 -25 507 q 51 528 25 528 q 83 524 67 528 q 113 510 99 521 q 126 485 126 500 q 130 358 132 414 q 131 232 128 303 q 144 106 133 161 q 147 91 146 100 q 150 76 149 82 q 153 62 151 69 q 158 47 156 54 q 165 33 161 39 q 183 18 176 17 q 203 36 186 18 q 275 176 243 82 q 289 222 282 197 q 181 338 207 257 q 170 430 165 381 q 200 518 175 479 q 238 560 215 542 q 288 583 260 578 q 342 569 317 589 q 369 534 360 556 q 380 481 379 513 q 379 432 381 449 q 375 383 378 415 q 350 239 367 308 q 458 276 411 228 m 313 335 q 319 499 329 444 q 306 540 315 525 q 294 549 299 550 q 281 542 290 549 q 242 489 258 524 q 236 338 207 413 q 299 258 254 288 q 313 335 307 296 z "},"w":{"ha":710,"x_min":-32,"x_max":764,"o":"m 721 276 q 751 269 735 282 q 749 256 763 261 q 596 226 669 219 q 583 186 590 207 q 562 133 574 158 q 534 78 550 107 q 497 28 518 49 q 453 -5 476 8 q 400 -17 429 -18 q 340 3 371 -15 q 242 133 267 43 q 228 83 235 107 q 168 7 208 25 q 110 1 140 -4 q 56 24 79 6 q -4 114 11 57 q -24 247 -19 171 q 7 521 -31 389 q 35 544 13 538 q 79 549 58 550 q 119 538 99 547 q 138 511 140 528 q 108 300 113 375 q 115 101 101 167 q 128 61 121 76 q 129 60 128 61 q 138 45 135 47 q 153 49 142 43 q 163 62 158 54 q 172 81 168 69 q 178 98 176 93 q 185 119 181 103 q 189 136 189 135 q 228 342 199 174 q 228 363 228 354 q 263 399 229 389 q 331 399 297 410 q 365 363 365 389 q 363 265 367 333 q 363 146 358 196 q 385 50 367 96 q 401 22 394 28 q 425 21 410 13 q 471 69 446 32 q 531 194 504 117 q 544 236 539 219 q 542 237 544 236 q 539 238 540 238 q 460 289 493 254 q 414 369 426 324 q 414 458 403 411 q 456 536 425 506 q 526 569 485 564 q 599 546 568 574 q 632 383 643 504 q 606 254 626 326 q 721 276 657 250 m 554 268 q 574 488 593 400 q 535 538 561 538 q 482 492 508 539 q 472 356 446 425 q 554 268 496 294 z "},"x":{"ha":369,"x_min":-44,"x_max":411,"o":"m 363 249 q 376 260 364 257 q 400 260 389 264 q 410 249 411 257 q 338 28 390 100 q 247 -20 304 -17 q 144 8 190 -24 q 67 104 96 40 q 14 -3 38 46 q -24 -12 6 -19 q -37 6 -43 -7 q 44 165 1 86 q 28 229 36 190 q -3 500 -6 382 q 35 540 -1 528 q 110 540 72 551 q 149 500 147 528 q 158 364 156 403 q 257 517 207 442 q 293 524 267 531 q 301 510 304 518 q 168 292 233 406 l 168 289 l 168 288 q 172 259 169 279 q 177 229 175 239 q 182 201 179 219 q 188 170 185 182 q 194 143 190 158 q 203 114 199 128 q 214 88 208 100 q 256 25 235 42 q 267 19 264 19 q 278 24 269 18 q 304 57 290 35 q 363 249 347 135 z "},"y":{"ha":521,"x_min":-44,"x_max":568,"o":"m 519 242 q 550 250 525 256 q 564 235 568 246 q 550 210 558 222 q 528 187 542 199 q 505 169 514 175 q 478 151 496 163 q 454 135 460 139 q 424 114 442 125 q 415 42 421 76 q 364 -126 401 -67 q 257 -221 314 -203 q 193 -224 228 -231 q 139 -192 158 -217 q 250 40 67 -97 q 293 72 269 56 q 286 274 294 174 q 282 340 283 313 q 267 288 274 311 q 260 267 265 285 q 254 245 256 250 q 247 224 253 240 q 238 201 242 208 q 228 181 235 194 q 217 160 222 167 q 204 142 213 153 q 188 126 196 132 q 171 115 181 121 q 151 106 161 108 q 51 124 94 89 q -11 218 8 160 q -19 489 -44 322 q 4 519 -17 510 q 49 528 25 528 q 95 518 71 528 q 117 489 119 508 q 101 274 100 343 q 110 179 103 211 q 125 138 115 150 q 126 133 126 135 l 128 133 q 131 135 128 135 q 149 147 138 138 q 194 233 167 167 q 226 331 211 278 q 265 500 244 393 q 265 542 263 524 q 296 576 267 565 q 356 579 325 586 q 396 551 388 572 q 404 524 400 539 q 410 495 408 508 q 415 465 413 482 q 417 435 417 447 q 419 404 418 424 q 421 375 421 385 q 426 199 428 288 q 425 160 426 178 q 458 182 444 172 q 468 190 460 183 q 478 197 476 196 q 488 204 481 199 q 499 213 496 210 q 506 221 501 215 q 514 231 511 226 q 519 242 517 236 m 292 -6 q 293 24 293 6 q 183 -169 140 -89 q 234 -191 203 -203 q 276 -146 265 -179 q 292 -6 289 -103 z "},"z":{"ha":485,"x_min":-133,"x_max":535,"o":"m 492 246 q 525 243 507 254 q 524 226 533 235 q 315 122 467 194 q 324 -29 342 53 q 245 -176 304 -115 q 101 -257 186 -237 q -64 -236 3 -278 q -82 -110 -133 -193 q 19 -3 -43 -47 q 172 89 81 42 q 174 91 172 90 q 176 92 175 92 q 169 110 174 101 q 136 158 157 142 q 106 172 124 169 q 60 194 79 175 q 63 232 42 213 q 203 390 167 338 q 254 499 242 444 q 225 547 267 551 q 146 506 192 544 q 85 438 111 476 q 29 261 15 333 q 20 249 31 253 q -2 249 10 246 q -17 257 -14 251 q -4 375 -35 300 q 51 472 17 428 q 136 551 88 519 q 236 579 185 582 q 302 551 278 578 q 328 488 326 524 q 322 414 329 451 q 218 231 300 336 q 301 151 272 204 q 492 246 431 211 m 181 -10 q 182 57 185 25 q 15 -67 72 -3 q -22 -182 -51 -143 q 53 -192 3 -215 q 136 -117 101 -168 q 181 -10 171 -65 z "},"{":{"ha":590,"x_min":58,"x_max":529,"o":"m 514 1068 q 514 1049 529 1060 q 481 1049 501 1040 q 444 1021 474 1053 q 422 988 433 1008 q 390 915 407 958 q 342 767 386 904 q 225 518 289 601 q 267 470 251 500 q 288 406 283 440 q 295 332 293 371 q 295 258 297 293 q 296 193 293 224 q 297 155 296 186 q 299 111 297 124 q 303 75 300 99 q 310 33 306 51 q 324 -4 315 14 q 372 -67 342 -42 q 439 -87 403 -93 q 479 -99 469 -82 q 465 -124 489 -115 q 367 -131 417 -139 q 278 -92 318 -122 q 179 78 208 -40 q 158 308 160 156 q 151 417 157 396 q 135 454 146 440 q 124 465 129 461 q 119 465 121 465 q 78 485 96 467 q 79 522 60 503 q 141 596 111 553 q 187 672 171 639 q 229 761 203 704 q 269 843 256 818 q 371 1007 326 957 q 514 1068 454 1103 m 124 465 z "},"|":{"ha":290,"x_min":61,"x_max":224,"o":"m 221 -153 q 210 -174 222 -165 q 184 -185 197 -182 q 160 -187 171 -187 q 97 -153 104 -187 q 74 436 61 61 q 88 733 76 518 q 91 780 89 754 q 94 833 93 806 q 97 881 96 861 q 114 1024 104 989 q 147 1039 119 1039 q 179 1024 175 1039 q 194 881 192 983 q 196 733 197 792 q 195 658 196 699 q 194 585 194 618 q 192 510 193 553 q 192 436 192 467 q 221 -153 186 121 z "},"}":{"ha":538,"x_min":67,"x_max":474,"o":"m 460 483 q 465 454 474 468 q 438 435 456 440 q 389 299 378 418 q 396 238 390 282 q 403 162 401 193 q 403 100 406 131 q 343 -78 396 -14 q 272 -121 317 -110 q 189 -117 228 -132 q 183 -92 161 -107 q 214 -85 199 -83 q 258 -54 236 -90 q 278 25 272 -29 q 274 210 286 101 q 269 244 272 222 q 264 282 265 267 q 261 317 263 297 q 261 354 260 336 q 268 389 263 372 q 326 475 282 443 q 207 719 246 567 q 172 889 193 776 q 171 896 172 892 q 163 935 167 921 q 151 969 160 949 q 127 999 142 990 q 90 1007 113 1008 q 69 1019 74 1006 q 82 1032 67 1029 q 85 1033 83 1033 q 122 1032 104 1035 q 154 1024 140 1029 q 182 1006 168 1018 q 206 983 196 993 q 226 954 215 974 q 244 924 238 935 q 260 890 250 914 q 273 858 269 867 q 285 824 276 849 q 296 794 293 800 q 314 740 297 788 q 336 681 331 693 q 358 630 342 668 q 386 574 374 592 q 418 529 399 556 q 460 483 438 503 z "},"":{"ha":432,"x_min":0,"x_max":0,"o":""},"":{"ha":297,"x_min":68,"x_max":229,"o":"m 226 90 q 219 -101 229 -44 q 175 -131 215 -126 q 141 -127 160 -132 q 119 -110 122 -122 q 92 85 101 -46 q 79 276 85 183 q 76 339 79 289 q 73 407 74 389 q 71 468 72 425 q 69 537 69 511 q 71 597 69 563 q 76 663 72 632 q 99 692 78 682 q 146 703 121 703 q 191 692 171 703 q 211 663 211 682 q 219 281 218 297 q 226 90 224 178 m 153 765 q 99 786 113 763 q 88 922 69 838 q 131 950 92 947 q 164 947 146 951 q 185 929 182 942 q 192 862 192 906 q 196 793 192 818 q 183 774 199 781 q 153 765 168 767 z "},"":{"ha":594,"x_min":49,"x_max":526,"o":"m 479 288 q 492 299 481 296 q 515 299 504 303 q 525 288 526 296 q 451 79 508 175 q 333 -11 403 -1 q 336 -124 336 -78 q 303 -143 336 -143 q 269 -124 271 -143 q 267 -7 267 -72 q 81 289 119 29 q 103 704 50 489 q 188 878 128 811 q 313 944 243 940 q 336 1124 324 1050 q 350 1136 338 1132 q 374 1137 363 1140 q 383 1124 385 1133 q 365 936 379 1067 q 375 932 371 933 q 450 785 435 903 q 451 568 460 707 q 446 558 451 563 q 433 553 440 554 q 417 553 425 553 q 404 558 410 554 q 399 568 399 563 q 394 765 404 704 q 371 853 386 822 q 358 871 367 863 q 353 808 354 835 q 333 501 340 656 q 326 194 326 347 q 331 26 326 140 q 344 27 338 25 q 356 32 350 29 q 367 40 361 35 q 378 51 374 46 q 389 65 383 57 q 398 78 394 72 q 406 93 401 83 q 413 107 411 103 q 419 119 415 111 q 425 129 424 128 q 479 288 463 203 m 301 808 q 304 838 301 817 q 269 761 289 810 q 233 621 247 703 q 221 283 204 440 q 251 125 231 193 q 269 82 260 100 q 271 194 271 164 q 281 501 274 347 q 301 808 288 656 z "},"":{"ha":518,"x_min":61,"x_max":450,"o":"m 333 897 q 256 819 282 900 q 242 547 226 729 q 258 403 246 497 q 310 404 281 404 q 336 389 336 406 q 310 374 336 375 q 263 372 269 372 q 278 53 289 165 q 342 64 311 60 q 392 61 367 67 q 426 36 418 56 q 425 11 433 22 q 403 -6 417 0 q 378 -12 390 -11 q 232 -51 300 -24 q 157 -51 197 -65 q 131 -37 143 -46 q 121 -15 119 -28 q 139 281 146 117 q 135 351 138 306 q 119 342 125 347 q 81 339 107 331 q 74 357 61 346 q 132 386 92 376 q 127 529 128 472 q 136 662 126 586 q 169 799 146 738 q 233 889 189 851 q 329 926 278 926 q 394 908 367 928 q 435 857 422 888 q 449 789 447 826 q 438 776 450 781 q 413 776 425 772 q 399 789 400 781 q 381 861 397 828 q 333 897 365 894 z "},"":{"ha":613,"x_min":61,"x_max":550,"o":"m 500 561 q 536 563 513 572 q 540 549 550 557 q 472 488 525 535 q 500 361 508 432 q 460 258 494 303 q 515 199 489 222 q 518 186 522 192 q 507 178 514 181 q 469 183 485 169 q 428 226 449 201 q 357 192 396 201 q 265 190 313 181 q 185 229 217 199 q 118 169 135 185 q 79 168 106 158 q 74 185 63 175 q 160 261 101 210 q 149 286 153 274 q 139 401 131 340 q 178 510 147 461 q 189 522 182 517 q 156 564 169 544 q 168 583 144 578 q 199 578 190 588 q 232 538 213 561 q 258 538 246 539 q 269 543 264 540 q 400 547 338 571 q 449 517 428 536 q 465 531 454 522 q 483 547 475 540 q 500 561 492 554 m 313 488 q 300 463 306 475 q 338 419 321 439 q 381 458 378 456 q 342 510 368 499 q 313 510 333 513 q 313 488 318 499 m 283 414 q 275 364 276 389 q 285 372 279 368 q 295 381 290 376 q 304 390 300 386 q 283 414 294 403 m 308 260 m 336 279 q 364 314 351 293 q 331 358 344 342 q 279 314 325 354 q 280 312 279 313 q 281 310 281 311 q 308 261 289 272 q 313 263 311 261 q 336 279 328 271 m 383 365 q 388 410 388 388 q 364 389 367 392 q 365 388 364 389 q 367 386 365 388 q 383 365 374 378 z "},"":{"ha":685,"x_min":57,"x_max":618,"o":"m 613 365 q 614 354 617 360 q 603 346 611 349 q 539 328 571 336 q 543 224 543 271 q 435 -50 539 29 q 305 -101 376 -96 q 175 -58 233 -106 q 138 18 140 -28 q 151 101 135 64 q 194 178 167 139 q 236 186 206 193 q 247 169 251 179 q 194 38 193 93 q 214 -19 194 8 q 261 -46 233 -46 q 325 -3 292 -44 q 371 99 356 32 q 381 303 389 179 q 340 293 358 299 q 310 297 319 288 q 313 314 299 308 q 378 335 339 328 q 375 361 376 346 q 374 381 375 363 q 333 378 351 378 q 311 390 314 378 q 321 401 308 399 q 371 413 342 408 q 353 638 356 574 q 349 731 350 692 q 338 661 343 700 q 335 650 336 657 q 326 602 331 619 q 313 560 322 585 q 285 522 303 536 q 242 501 267 507 q 138 526 188 490 q 81 626 94 557 q 83 885 58 731 q 107 915 86 906 q 151 924 128 924 q 197 915 174 924 q 219 885 221 906 q 213 818 218 863 q 206 738 208 774 q 204 669 204 701 q 213 578 206 610 q 228 544 218 554 q 238 540 235 539 q 250 550 242 540 q 262 566 257 557 q 270 587 267 575 q 275 605 274 599 q 278 628 276 611 q 282 647 281 644 q 301 750 292 708 q 307 778 303 757 q 313 809 311 799 q 321 838 315 819 q 331 867 326 856 q 344 892 336 879 q 363 915 353 906 q 417 940 371 940 q 471 915 464 940 q 482 860 478 889 q 490 786 486 832 q 493 731 493 740 q 514 544 497 690 q 526 443 517 521 q 564 451 547 447 q 600 446 590 458 q 602 434 606 440 q 590 425 599 428 q 531 411 560 418 q 536 360 533 383 q 576 371 557 365 q 613 365 601 379 z "},"":{"ha":481,"x_min":69,"x_max":424,"o":"m 356 161 q 408 -56 424 28 q 351 -143 399 -111 q 244 -172 304 -175 q 158 -142 193 -171 q 118 -64 122 -114 q 131 -48 117 -53 q 161 -47 146 -43 q 179 -58 176 -50 q 203 -103 185 -82 q 243 -119 222 -125 q 272 -84 261 -114 q 283 -29 282 -54 q 279 23 285 -4 q 267 69 274 50 q 247 120 261 89 q 225 165 232 151 q 200 210 218 178 q 183 240 194 219 q 165 272 172 260 q 149 302 158 283 q 133 335 139 321 q 119 367 126 350 q 108 402 113 385 q 103 436 104 419 q 108 492 99 464 q 144 544 114 508 q 164 565 154 557 q 128 618 143 594 q 98 673 113 642 q 76 731 83 704 q 69 791 69 758 q 81 854 69 824 q 140 949 97 907 q 235 1006 182 992 q 333 1004 283 1019 q 400 943 383 989 q 381 922 407 925 q 339 933 350 919 q 307 960 326 957 q 268 949 288 964 q 213 848 225 915 q 224 722 201 781 q 288 608 238 682 q 308 577 292 601 q 329 544 324 553 q 348 513 335 535 q 367 477 361 490 q 382 444 374 464 q 394 407 390 425 q 400 369 399 389 q 372 246 408 304 q 333 201 353 214 q 356 161 346 179 m 311 238 q 318 272 317 254 q 307 333 318 303 q 249 450 292 385 q 192 529 232 475 q 186 513 186 518 q 189 457 182 488 q 242 346 197 415 q 276 291 253 326 q 311 238 300 256 z "},"":{"ha":868,"x_min":39,"x_max":808,"o":"m 797 558 q 751 247 807 411 q 588 6 694 81 q 441 -44 524 -42 q 289 -7 358 -46 q 113 222 169 56 q 90 704 40 431 q 114 818 82 749 q 115 820 115 819 q 115 821 115 821 q 125 856 121 839 q 150 878 129 869 q 207 940 175 914 q 343 1003 268 989 q 493 994 418 1018 q 651 897 583 967 q 755 741 719 828 q 797 558 790 654 m 669 306 q 706 581 715 446 q 672 737 699 660 q 588 881 644 814 q 458 971 532 947 q 338 970 399 989 q 232 906 278 951 q 213 885 222 896 q 255 872 235 882 q 271 843 275 861 q 241 690 251 751 q 222 545 231 629 q 219 385 213 461 q 246 239 225 310 q 371 43 288 94 q 458 25 418 15 q 546 82 500 35 q 669 306 621 160 m 528 406 q 541 419 529 415 q 565 418 553 422 q 575 406 576 414 q 538 285 571 344 q 451 215 506 226 q 347 244 392 201 q 281 350 301 286 q 286 588 246 460 q 324 665 299 629 q 390 719 350 700 q 472 725 429 739 q 535 654 519 710 q 543 538 550 599 q 529 523 543 526 q 502 524 515 519 q 489 538 489 528 q 469 657 494 611 q 461 668 468 661 q 446 646 451 656 q 393 457 401 564 q 399 356 390 406 q 432 265 410 294 q 446 254 440 254 q 463 264 451 254 q 494 304 479 279 q 528 406 522 350 z "},"":{"ha":0,"x_min":0,"x_max":0,"o":""},"":{"ha":868,"x_min":39,"x_max":808,"o":"m 797 558 q 751 247 807 411 q 588 6 694 81 q 441 -44 524 -42 q 289 -7 358 -46 q 113 222 169 56 q 90 704 40 431 q 114 818 82 749 q 115 820 115 819 q 115 821 115 821 q 125 856 121 839 q 150 878 129 869 q 207 940 175 914 q 343 1003 268 989 q 493 994 418 1018 q 651 897 583 967 q 755 741 719 828 q 797 558 790 654 m 669 306 q 706 581 715 446 q 672 737 699 660 q 588 881 644 814 q 458 971 532 947 q 338 970 399 989 q 232 906 278 951 q 213 885 222 896 q 255 872 235 882 q 271 843 275 861 q 241 690 251 751 q 222 545 231 629 q 219 385 213 461 q 246 239 225 310 q 371 43 288 94 q 458 25 418 15 q 546 82 500 35 q 669 306 621 160 m 549 469 q 588 464 578 476 q 590 449 593 456 q 578 442 586 443 q 425 443 457 411 q 425 428 425 431 q 424 406 425 421 q 424 383 424 392 q 426 362 424 374 q 433 340 429 350 q 432 322 439 331 q 416 310 425 314 q 397 304 407 306 q 335 325 353 297 q 313 418 318 349 q 310 521 310 454 q 325 729 310 636 q 356 757 329 749 q 407 758 382 765 q 433 729 432 750 q 432 664 433 701 q 483 672 454 675 q 528 651 513 669 q 529 597 544 631 q 511 564 524 586 q 494 531 499 542 q 487 517 493 529 q 477 499 481 506 q 470 480 474 492 q 471 465 467 468 q 549 469 478 451 m 425 510 q 465 586 433 529 q 472 601 469 594 q 480 619 475 607 q 481 636 485 631 q 465 640 476 642 q 445 629 457 638 q 431 613 433 621 q 431 610 431 611 q 431 608 431 608 q 429 596 436 601 q 426 531 426 549 q 425 510 426 524 z "},"":{"ha":582,"x_min":67,"x_max":515,"o":"m 507 963 q 513 667 507 743 q 485 635 515 644 q 422 634 454 625 q 390 667 390 643 q 390 697 390 681 q 294 610 344 621 q 219 621 253 600 q 218 411 217 529 q 228 139 218 317 q 232 74 229 117 q 236 11 235 32 q 239 -30 236 -3 q 243 -78 242 -57 q 243 -121 244 -100 q 200 -149 240 -149 q 146 -128 160 -149 q 104 3 121 -87 q 86 139 94 50 q 71 406 75 247 q 74 674 68 526 q 97 951 81 851 q 121 981 100 972 q 167 990 142 990 q 214 981 190 990 q 236 951 238 971 q 229 826 235 907 q 222 713 224 744 q 240 663 228 681 q 269 640 256 640 q 297 660 279 640 q 379 799 333 701 q 403 857 392 828 q 428 968 411 915 q 471 986 435 988 q 507 963 507 985 z "},"":{"ha":731,"x_min":53,"x_max":667,"o":"m 660 -68 q 646 -97 665 -87 q 601 -101 626 -106 q 568 -82 575 -96 q 555 -51 561 -67 q 544 -15 549 -35 q 536 18 539 4 q 531 55 533 32 q 526 89 528 78 q 522 126 525 100 q 519 160 519 153 q 501 417 504 304 q 508 779 497 631 q 483 767 496 774 q 476 664 478 688 q 472 410 471 525 q 483 158 474 263 q 494 36 489 88 q 500 -94 506 -62 q 458 -122 496 -121 q 408 -101 421 -122 q 361 26 381 -61 q 339 149 347 89 q 318 406 321 271 q 321 664 315 522 q 321 692 321 678 q 290 681 304 685 q 75 696 114 625 q 106 794 54 736 q 201 865 146 839 q 336 903 267 894 q 339 922 339 919 q 380 961 343 950 q 453 961 417 972 q 489 922 489 950 q 488 888 489 906 q 518 874 504 882 q 526 938 522 906 q 550 966 531 957 q 592 975 569 975 q 619 972 606 975 q 646 959 633 968 q 658 938 658 950 q 649 782 656 903 q 639 583 642 661 q 638 428 636 504 q 643 175 639 276 q 645 150 644 165 q 647 123 646 135 q 648 98 647 111 q 649 72 649 85 q 650 46 650 58 q 651 11 651 38 q 653 -33 651 -15 q 660 -68 656 -51 m 322 729 q 332 868 326 810 q 154 771 226 849 q 128 707 118 732 q 168 689 135 689 q 306 722 225 690 q 322 729 314 725 m 485 807 q 507 818 496 813 q 488 846 499 835 q 485 807 486 826 z "},"":{"ha":599,"x_min":67,"x_max":532,"o":"m 407 888 q 444 912 413 906 q 502 908 475 918 q 528 878 529 899 q 428 576 515 765 q 289 328 397 510 q 279 311 286 322 q 233 231 249 260 q 201 153 218 201 q 183 64 183 104 q 222 -42 182 -4 q 304 -51 253 -72 q 394 24 368 -28 q 406 138 424 82 q 414 152 403 147 q 438 155 425 157 q 454 144 451 153 q 440 7 478 75 q 347 -92 401 -67 q 251 -114 301 -114 q 156 -90 201 -114 q 89 -21 111 -67 q 72 40 75 7 q 72 103 68 74 q 89 167 76 132 q 113 227 101 203 q 142 285 125 251 q 192 374 158 314 q 250 483 225 435 q 296 575 275 531 q 358 731 335 663 q 383 810 368 757 q 407 888 399 863 m 514 1056 q 529 1035 532 1044 q 517 956 521 993 q 494 931 515 938 q 450 932 472 925 q 425 956 428 939 q 426 1042 415 996 q 449 1060 431 1056 q 485 1064 468 1065 q 514 1056 503 1063 z "},"":{"ha":921,"x_min":-56,"x_max":856,"o":"m 772 919 q 802 850 790 890 q 818 782 814 810 q 828 706 822 754 q 835 464 838 614 q 830 305 833 424 q 826 147 826 186 q 826 -12 825 107 q 821 -30 826 -22 q 807 -42 815 -37 q 788 -49 799 -46 q 769 -53 778 -53 q 753 -54 760 -54 q 704 -44 726 -54 q 679 -12 682 -35 q 676 32 678 7 q 596 292 639 204 q 417 215 506 242 q 417 186 417 199 q 422 79 418 136 q 426 26 425 47 q 426 16 426 25 q 427 0 426 7 q 430 -13 428 -7 q 436 -22 432 -19 q 443 -31 443 -25 q 436 -42 443 -37 q 401 -42 422 -51 q 384 -24 390 -36 q 376 -1 378 -11 q 374 28 375 8 q 374 50 374 47 q 365 186 368 111 q 365 203 365 188 q 299 193 332 196 q 64 213 171 179 q -20 261 14 229 q -54 340 -54 293 q -26 428 -54 386 q 46 501 3 469 q 226 565 122 557 q 385 544 306 571 q 483 867 413 736 q 613 994 540 975 q 701 983 657 1006 q 772 919 746 960 m 372 440 q 379 508 375 474 q 219 532 300 543 q 72 468 133 521 q 13 392 35 435 q 7 307 -8 349 q 158 225 31 244 q 365 236 257 211 q 372 440 364 344 m 417 251 q 578 325 496 278 q 519 406 551 369 q 429 482 478 451 q 421 385 424 435 q 417 251 417 321 m 678 226 q 686 347 679 274 q 639 317 663 332 q 678 226 660 276 m 704 667 q 697 872 706 817 q 668 953 689 926 q 596 943 643 985 q 499 781 542 894 q 435 524 454 664 q 575 413 515 483 q 619 351 599 385 q 690 401 654 374 q 696 464 693 438 q 704 667 704 586 m 821 1168 q 850 1157 843 1172 q 833 1140 854 1146 q 575 1053 699 1111 q 540 1053 556 1043 q 534 1063 535 1057 q 540 1072 533 1068 q 821 1168 675 1138 z "},"":{"ha":1383,"x_min":-56,"x_max":1314,"o":"m 1264 314 q 1278 327 1265 324 q 1302 327 1290 331 q 1313 314 1314 324 q 1233 38 1283 129 q 1056 -58 1175 -72 q 947 -18 994 -53 q 876 72 900 17 q 864 210 853 140 q 911 344 875 281 q 850 418 876 374 q 833 447 842 432 q 829 294 833 421 q 826 141 825 168 q 826 -12 826 114 q 813 -37 826 -28 q 783 -51 799 -47 q 753 -54 767 -54 q 704 -44 726 -54 q 679 -12 682 -35 q 676 32 678 7 q 596 292 639 204 q 417 215 506 242 q 417 186 417 199 q 422 79 418 136 q 426 26 425 47 q 426 16 426 25 q 427 0 426 7 q 430 -13 428 -7 q 436 -22 432 -19 q 442 -31 443 -25 q 436 -42 442 -37 q 401 -42 422 -51 q 384 -24 390 -36 q 376 -1 378 -11 q 374 28 375 8 q 374 50 374 47 q 365 186 368 111 q 365 203 365 188 q 299 193 332 196 q 64 213 171 179 q -20 261 14 229 q -54 340 -54 293 q -26 428 -54 386 q 46 501 3 469 q 226 565 122 557 q 385 544 306 571 q 483 867 413 736 q 613 994 540 975 q 701 983 657 1006 q 772 919 746 960 q 802 850 790 890 q 818 782 814 810 q 828 706 822 754 q 829 685 828 700 q 889 808 850 749 q 1000 929 943 890 q 1151 958 1085 988 q 1226 847 1210 933 q 1233 772 1232 813 q 1234 702 1235 731 q 1227 624 1233 674 q 1217 554 1221 574 q 1204 479 1214 535 q 1191 467 1203 471 q 1168 468 1179 464 q 1158 479 1157 472 q 1173 569 1168 538 q 1183 651 1178 601 q 1187 745 1188 701 q 1179 831 1186 789 q 1172 860 1178 843 q 1156 899 1167 878 q 1133 926 1146 919 q 1106 922 1121 932 q 1036 822 1075 899 q 963 569 964 679 q 976 479 961 518 q 993 444 983 461 q 1003 429 996 440 q 1003 428 1003 428 q 1007 424 1006 425 q 1042 389 1017 413 q 1045 386 1043 388 q 1050 383 1047 385 q 1069 365 1061 378 q 1069 343 1076 353 q 1021 249 1039 299 q 999 142 1003 199 q 1021 40 996 86 q 1050 4 1032 21 q 1088 -14 1068 -12 q 1181 46 1132 -18 q 1232 167 1208 82 q 1264 314 1246 214 m 372 440 q 379 508 375 474 q 219 532 300 543 q 72 468 133 521 q 13 392 35 435 q 7 307 -8 349 q 158 225 31 244 q 365 236 257 211 q 372 440 364 344 m 417 251 q 578 325 496 278 q 519 406 551 369 q 429 482 478 451 q 421 385 424 435 q 417 251 417 321 m 676 226 q 686 347 679 274 q 639 317 663 332 q 676 226 660 276 m 704 667 q 697 872 706 817 q 668 953 689 926 q 596 943 643 985 q 499 781 542 894 q 435 524 454 664 q 575 413 515 483 q 619 351 599 385 q 690 401 654 374 q 696 464 693 438 q 704 667 704 586 z "},"":{"ha":553,"x_min":-67,"x_max":483,"o":"m 433 314 q 464 328 438 331 q 483 314 482 325 q 481 301 482 310 q 466 215 472 246 q 447 138 460 185 q 415 57 433 92 q 398 25 404 36 q 379 -1 392 14 q 353 -28 367 -17 q 315 -49 336 -40 q 310 -187 311 -122 q 304 -197 310 -193 q 291 -202 299 -201 q 276 -202 283 -203 q 263 -197 268 -201 q 257 -187 257 -193 q 263 -60 258 -124 q 246 -61 254 -61 q 50 54 131 -57 q 1 149 18 97 q -26 267 -17 201 q 13 717 -65 515 q 136 906 56 829 q 199 949 165 932 q 273 969 233 965 q 343 947 313 974 q 385 887 371 926 q 402 818 400 847 q 404 743 404 789 q 375 479 404 654 q 362 467 374 471 q 339 468 350 464 q 329 479 328 472 q 357 724 356 642 q 346 847 357 794 q 326 899 340 879 q 288 929 306 931 q 257 900 279 928 q 233 867 247 889 q 193 793 215 839 q 136 622 158 715 q 122 258 97 460 q 169 86 135 163 q 192 44 181 63 q 219 11 204 26 q 265 -14 247 -14 q 276 108 269 50 q 290 122 278 118 q 315 122 303 125 q 325 108 326 118 q 318 13 321 61 q 340 35 329 22 q 383 110 364 61 q 433 314 410 176 z "},"":{"ha":531,"x_min":-64,"x_max":463,"o":"m 413 314 q 426 327 414 324 q 451 327 439 331 q 461 314 463 324 q 429 160 446 224 q 382 38 413 96 q 203 -58 324 -72 q 95 -18 143 -53 q 25 72 47 17 q 12 210 1 140 q 60 344 22 281 q -3 418 25 374 q -32 653 -64 517 q 38 808 -11 735 q 149 929 92 890 q 300 958 233 988 q 374 847 358 933 q 383 760 382 804 q 378 659 385 715 q 368 574 372 603 q 353 479 364 546 q 340 467 351 471 q 317 468 328 464 q 307 479 306 472 q 322 569 317 538 q 331 651 326 601 q 335 745 336 701 q 328 831 333 789 q 319 860 325 843 q 304 899 314 878 q 282 926 294 919 q 253 922 269 932 q 185 822 222 899 q 110 569 111 679 q 124 479 110 518 q 140 444 131 461 q 150 429 143 440 q 151 428 151 428 q 156 424 154 425 q 190 389 164 413 q 193 386 192 388 q 197 383 194 385 q 217 365 210 378 q 217 343 224 353 q 169 249 188 299 q 148 142 151 199 q 169 40 144 86 q 185 17 175 29 q 209 -3 196 6 q 236 -14 222 -12 q 329 46 281 -18 q 381 167 356 82 q 413 314 394 214 m 165 1015 q 136 1026 143 1010 q 153 1043 132 1039 q 329 1093 239 1064 q 365 1088 354 1101 q 366 1075 369 1081 q 356 1067 363 1069 q 165 1015 264 1038 z "},"":{"ha":322,"x_min":-57,"x_max":374,"o":"m 326 246 q 340 258 328 254 q 363 258 351 261 q 372 246 374 254 q 338 38 368 110 q 279 -40 318 -11 q 190 -68 240 -69 q 135 -57 160 -68 q 94 -24 110 -46 q 68 22 79 -1 q 50 78 57 44 q 40 132 43 111 q 33 185 36 153 q 33 546 18 333 q 60 896 42 671 q -19 882 19 889 q -50 893 -42 876 q -37 910 -57 904 q -33 911 -36 910 q 67 928 14 919 q 123 955 81 951 q 189 942 165 958 q 283 947 238 946 q 294 947 288 949 q 305 942 300 946 q 310 932 310 938 q 283 917 310 918 q 207 913 246 915 q 205 819 207 869 q 200 734 203 769 q 192 638 197 699 q 185 550 188 578 q 169 233 169 356 q 175 78 169 171 q 176 61 175 74 q 176 42 176 49 q 178 26 176 36 q 181 10 179 17 q 207 -32 190 -29 q 261 4 229 -37 q 300 83 283 33 q 326 246 318 143 m 47 1026 q 11 1032 22 1018 q 9 1044 6 1039 q 21 1053 13 1050 q 232 1107 124 1086 q 263 1096 254 1111 q 247 1078 269 1083 q 47 1026 147 1058 z "},"":{"ha":651,"x_min":-32,"x_max":708,"o":"m 654 251 q 689 267 658 269 q 708 251 708 263 q 693 193 700 221 q 672 126 686 165 q 642 55 657 86 q 603 -6 626 24 q 556 -52 581 -36 q 499 -68 532 -68 q 431 -47 467 -68 q 359 27 383 -21 q 333 133 335 75 q 351 376 332 229 q 383 628 376 567 q 388 673 383 640 q 393 723 392 706 q 396 767 394 740 q 396 817 397 794 q 390 863 394 840 q 368 900 383 897 q 318 871 353 903 q 263 788 286 839 q 199 564 224 707 q 154 118 169 403 q 146 6 161 53 q 107 -13 140 -12 q 64 0 74 -14 q 31 56 39 33 q 15 108 22 79 q -4 224 4 158 q -26 451 -21 338 q -28 681 -31 567 q -10 914 -24 839 q 65 956 -1 956 q 116 945 90 956 q 140 914 142 935 q 133 797 139 874 q 125 681 126 719 q 126 457 121 568 q 128 424 126 451 q 160 625 140 532 q 229 826 190 760 q 293 903 256 872 q 374 929 331 933 q 433 903 407 926 q 472 853 458 881 q 492 790 485 825 q 507 546 514 696 q 485 300 506 499 q 465 65 467 117 q 492 -24 465 -3 q 569 31 524 -51 q 654 251 626 131 m 193 1069 q 177 1056 190 1060 q 151 1057 164 1053 q 140 1069 139 1061 q 160 1110 144 1093 q 197 1133 175 1126 q 243 1136 219 1140 q 304 1100 271 1132 q 317 1090 315 1090 q 340 1103 324 1089 q 368 1131 349 1110 q 404 1133 379 1143 q 413 1115 421 1126 q 297 1063 351 1049 q 286 1067 292 1064 q 276 1073 281 1069 q 267 1079 271 1076 q 258 1088 264 1082 q 249 1096 251 1093 q 213 1102 229 1111 q 193 1069 197 1093 z "},"":{"ha":571,"x_min":-46,"x_max":636,"o":"m 626 253 q 618 235 636 240 q 446 219 538 208 q 389 88 424 144 q 272 -16 346 13 q 118 -6 197 -44 q -10 294 -10 64 q 15 489 -10 383 q -37 640 -28 558 q -15 799 -46 722 q 78 911 15 871 q 217 944 140 951 q 310 917 268 939 q 380 863 351 896 q 430 788 408 831 q 462 699 451 746 q 479 603 472 653 q 485 508 486 554 q 482 419 485 461 q 454 250 474 328 q 594 257 526 240 q 626 253 618 264 m 357 194 q 371 235 364 214 q 289 264 329 246 q 133 358 204 303 q 125 294 128 325 q 126 129 115 211 q 194 18 138 40 q 300 75 242 0 q 357 194 331 115 m 379 267 q 408 493 408 379 q 357 775 410 667 q 276 874 329 833 q 167 899 224 914 q 75 822 108 883 q 36 692 42 760 q 44 596 33 644 q 65 661 53 626 q 101 688 72 682 q 155 691 131 694 q 195 674 179 688 q 206 640 211 661 q 144 411 151 446 q 340 281 222 329 q 379 267 358 272 m 122 1003 q 90 1008 99 996 q 99 1026 81 1021 q 326 1075 211 1058 q 357 1065 353 1079 q 353 1053 360 1058 q 340 1049 347 1049 q 122 1003 228 1033 z "},"":{"ha":571,"x_min":-46,"x_max":636,"o":"m 626 253 q 618 235 636 240 q 446 219 538 208 q 389 88 424 144 q 319 10 363 42 q 229 -28 276 -21 q 188 -294 207 -160 q 172 -309 186 -306 q 144 -308 157 -312 q 133 -294 132 -304 q 175 -26 153 -156 q 118 -6 144 -21 q -10 294 -10 64 q 15 489 -10 383 q -37 640 -28 558 q -15 799 -46 722 q 78 911 15 871 q 217 944 140 951 q 363 881 303 936 q 404 1090 396 1017 q 417 1102 406 1099 q 440 1101 429 1106 q 450 1090 451 1097 q 400 839 443 1014 q 474 647 456 761 q 482 419 492 532 q 454 250 474 328 q 594 257 526 240 q 626 253 618 264 m 65 663 q 101 688 72 682 q 155 691 131 694 q 195 674 179 688 q 206 640 211 661 q 144 411 151 446 q 240 332 185 368 q 288 558 264 449 q 343 801 314 678 q 264 882 311 851 q 167 899 217 913 q 75 822 108 883 q 36 692 42 760 q 44 596 33 644 q 65 663 53 626 m 183 24 q 232 293 207 160 q 133 358 179 322 q 125 294 128 325 q 126 129 115 211 q 183 24 136 51 m 357 194 q 371 235 364 214 q 289 264 329 246 q 284 267 288 265 q 281 268 281 268 q 236 21 257 146 q 300 75 268 35 q 357 194 331 115 m 379 267 q 408 493 408 379 q 375 732 410 635 q 288 306 328 522 q 340 281 314 292 q 379 267 358 272 z "},"":{"ha":696,"x_min":-36,"x_max":753,"o":"m 704 244 q 718 257 706 254 q 741 256 731 260 q 750 244 751 253 q 738 174 742 196 q 722 110 733 153 q 692 39 710 68 q 647 -11 674 10 q 537 -30 597 -47 q 446 39 476 -12 q 406 174 424 79 q 390 324 393 244 q 389 350 390 331 q 369 256 379 301 q 306 76 339 129 q 246 18 282 38 q 168 6 210 -1 q 38 122 85 19 q -15 313 4 196 q -32 511 -31 406 q -1 921 -35 746 q 35 955 3 944 q 99 956 68 965 q 131 921 129 946 q 122 715 131 851 q 114 511 114 579 q 146 158 115 314 q 150 137 147 149 q 159 107 153 125 q 172 76 165 89 q 188 53 178 63 q 210 44 199 43 q 268 114 236 47 q 296 189 283 147 q 350 416 326 290 q 383 624 374 542 q 410 856 393 707 q 414 900 413 885 q 415 921 415 917 q 453 958 417 947 q 524 958 489 969 q 560 921 560 947 q 546 629 561 850 q 540 121 524 314 q 560 19 546 46 q 567 6 565 10 q 576 -1 569 3 q 590 -3 582 -4 q 629 28 608 3 q 659 74 646 49 q 681 133 672 99 q 694 186 690 168 q 704 244 697 204 m 189 1011 q 154 1018 169 1004 q 158 1036 142 1028 q 163 1038 160 1038 q 318 1093 239 1069 q 354 1088 343 1100 q 356 1075 360 1081 q 344 1067 353 1069 q 189 1011 265 1043 z "},"":{"ha":717,"x_min":-60,"x_max":665,"o":"m 633 382 q 622 157 665 268 q 483 -32 579 46 q 242 -136 369 -124 q 115 -126 176 -142 q 18 -67 54 -110 q -21 143 -60 26 q 28 233 -4 192 q 15 471 18 332 q 39 953 8 756 q 65 985 43 975 q 113 996 86 996 q 163 985 138 996 q 186 953 188 975 q 179 794 185 901 q 171 629 174 686 q 240 817 199 738 q 333 935 276 888 q 457 982 389 983 q 524 963 494 982 q 560 910 553 944 q 511 757 572 849 q 376 603 457 675 q 488 564 436 593 q 579 488 540 535 q 633 382 618 440 m 243 689 q 217 593 229 644 q 431 789 340 674 q 476 856 449 813 q 497 924 504 899 q 463 950 489 949 q 415 940 438 951 q 375 915 393 929 q 243 689 296 850 m 307 -37 q 443 78 388 7 q 513 235 499 149 q 493 406 528 322 q 386 519 457 488 q 351 531 369 526 q 328 533 340 533 q 314 533 321 535 q 310 533 311 533 q 303 532 307 533 q 269 524 289 531 q 203 525 236 511 q 182 388 192 467 q 176 346 179 368 q 331 346 263 376 q 397 283 375 326 q 401 196 419 239 q 368 186 394 181 q 354 203 349 190 q 356 267 367 238 q 315 316 344 297 q 251 332 285 335 q 172 310 213 331 q 171 286 172 307 q 172 229 171 272 q 174 174 172 215 q 175 111 175 133 q 168 -10 178 28 q 121 -29 163 -29 q 74 -10 83 -29 q 42 115 56 26 q 38 144 40 129 q 33 32 18 83 q 76 -33 44 -7 q 150 -69 108 -58 q 307 -37 218 -87 z "},"":{"ha":540,"x_min":-43,"x_max":583,"o":"m 536 260 q 549 269 538 267 q 572 267 561 271 q 581 257 582 264 q 501 39 554 118 q 429 -7 471 -6 q 338 43 372 -8 q 293 281 286 119 q 293 288 293 283 q 293 292 293 290 q 267 194 278 231 q 260 174 265 192 q 253 152 256 157 q 247 132 251 147 q 238 109 242 117 q 228 90 233 101 q 217 70 222 79 q 203 54 211 61 q 140 18 176 24 q 68 31 104 13 q -20 148 1 65 q -24 311 -42 231 q 44 458 -6 393 q 165 549 93 524 q 332 544 251 579 q 350 561 338 554 q 363 567 354 565 q 400 572 379 572 q 429 569 413 572 q 460 556 446 565 q 474 531 475 546 q 459 447 469 506 q 442 345 449 389 q 432 261 436 301 q 424 131 425 172 q 429 69 424 94 q 440 33 436 39 q 493 129 463 51 q 536 260 514 182 m 257 338 q 292 454 282 426 q 247 492 271 489 q 168 444 215 496 q 89 228 90 360 q 111 108 88 158 q 142 65 125 78 q 152 60 150 60 q 158 68 154 61 q 176 94 175 93 q 197 140 188 117 q 216 191 207 163 q 230 237 225 219 q 244 290 235 254 q 257 338 254 325 m 140 610 q 130 617 133 611 q 132 628 126 622 q 192 665 158 651 q 274 692 225 679 q 343 711 324 706 q 378 707 367 719 q 368 686 389 693 q 306 669 350 681 q 229 647 261 658 q 174 614 197 635 q 140 610 158 603 z "},"":{"ha":658,"x_min":-36,"x_max":706,"o":"m 656 263 q 688 271 661 276 q 700 256 704 267 q 617 99 668 172 q 585 57 597 72 q 551 25 572 42 q 504 1 529 8 q 358 24 424 -24 q 276 154 292 72 q 269 207 271 181 q 236 110 253 151 q 129 22 199 24 q 31 62 71 19 q -22 160 -8 104 q -31 269 -36 215 q 23 430 -24 354 q 142 539 69 506 q 275 559 200 568 q 392 501 350 550 q 471 533 429 525 q 539 528 506 539 q 576 485 572 517 q 561 428 581 457 q 515 388 542 399 q 443 388 485 376 q 411 200 411 300 q 413 169 411 186 q 418 126 414 151 q 429 82 422 100 q 447 47 436 64 q 474 31 458 31 q 511 43 490 31 q 597 146 549 68 q 656 263 631 200 m 469 446 q 454 415 463 432 q 492 414 478 407 q 514 436 504 419 q 525 467 524 453 q 523 484 525 474 q 515 494 521 494 q 499 483 511 496 q 469 446 483 469 m 275 403 q 292 454 290 451 q 240 492 267 494 q 154 429 200 489 q 100 316 117 379 q 89 190 83 253 q 129 72 97 115 q 146 57 142 56 q 168 81 154 58 q 196 139 179 97 q 224 221 211 176 q 252 319 238 265 q 275 403 267 372 z "},"":{"ha":418,"x_min":-57,"x_max":464,"o":"m 413 263 q 428 273 415 271 q 452 269 442 275 q 460 256 463 264 q 382 79 429 161 q 281 -60 325 -22 q 192 -99 242 -94 q 172 -231 179 -164 q 158 -244 171 -240 q 131 -243 144 -247 q 119 -231 118 -239 q 140 -93 128 -162 q 25 3 72 -75 q -18 318 -56 133 q 6 401 -8 363 q 42 476 19 439 q 101 539 65 514 q 181 569 136 564 q 247 558 218 574 q 286 508 275 543 q 293 343 304 446 q 279 329 293 333 q 252 329 265 325 q 240 343 239 333 q 228 500 249 446 q 221 513 226 504 q 214 524 215 521 q 213 525 214 524 q 213 524 213 525 q 198 501 208 517 q 183 476 188 485 q 119 236 131 363 q 154 -1 110 111 q 158 -11 156 -7 q 165 18 161 4 q 181 28 167 26 q 206 25 194 31 q 215 10 217 19 q 199 -61 207 -24 q 215 -58 207 -62 q 231 -51 224 -56 q 245 -39 238 -46 q 258 -26 253 -32 q 270 -10 263 -19 q 281 5 278 0 q 292 21 285 10 q 301 35 299 32 q 413 263 371 139 z "},"":{"ha":358,"x_min":-39,"x_max":406,"o":"m 356 263 q 388 271 363 276 q 400 256 406 267 q 317 99 368 172 q 285 57 299 72 q 251 25 272 42 q 204 1 229 8 q 58 24 125 -24 q -24 154 -8 72 q -22 317 -39 235 q 43 458 -6 400 q 171 533 94 519 q 240 528 206 539 q 278 485 274 517 q 261 428 281 457 q 215 388 242 399 q 143 388 185 376 q 111 200 111 300 q 113 169 111 186 q 118 126 114 151 q 129 82 122 100 q 147 47 136 64 q 174 31 158 31 q 213 43 190 31 q 297 146 249 68 q 356 263 332 200 m 171 446 q 156 415 163 432 q 192 414 178 407 q 214 436 204 419 q 225 467 224 453 q 223 484 225 474 q 215 494 221 494 q 199 483 211 496 q 171 446 183 469 m 89 579 q 83 589 83 583 q 89 599 82 594 q 243 653 163 639 q 263 651 251 654 q 276 642 274 649 q 257 624 281 626 q 124 579 186 611 q 89 579 104 569 z "},"":{"ha":222,"x_min":-32,"x_max":265,"o":"m 218 260 q 233 269 221 267 q 255 267 244 271 q 264 257 265 264 q 183 39 238 118 q 113 -7 154 -6 q 21 43 56 -8 q -24 281 -31 119 q 10 531 -19 388 q 83 572 18 572 q 113 569 96 572 q 144 556 129 565 q 157 531 158 546 q 142 447 153 506 q 126 345 132 389 q 115 261 119 301 q 107 131 107 172 q 113 69 107 94 q 122 33 119 39 q 176 129 146 51 q 218 260 197 182 m 17 618 q -17 622 -7 610 q -7 642 -26 636 q 150 692 121 682 q 185 686 175 700 q 187 674 190 679 q 176 665 183 668 q 17 618 147 657 z "},"":{"ha":521,"x_min":-25,"x_max":561,"o":"m 507 243 q 522 256 508 253 q 548 256 536 260 q 558 243 560 251 q 521 89 547 161 q 505 46 511 60 q 483 13 499 32 q 449 -15 468 -7 q 387 -22 422 -28 q 331 4 351 -17 q 285 136 289 51 q 288 228 283 179 q 299 335 292 276 q 310 425 307 393 q 310 467 313 458 q 290 494 304 492 q 244 456 275 496 q 183 333 215 415 q 108 82 149 246 q 108 65 108 72 q 101 14 108 63 q 62 -12 99 -11 q 14 7 25 -12 q 3 27 7 17 q -4 53 -1 38 q -8 74 -7 68 q -12 102 -10 81 q -14 124 -14 124 q -22 242 -19 171 q -8 488 -25 378 q 15 516 -4 507 q 58 525 35 525 q 103 516 81 525 q 125 488 126 507 q 110 278 113 344 q 146 375 126 331 q 172 428 160 407 q 203 478 183 450 q 250 517 224 506 q 306 524 276 529 q 341 504 325 519 q 365 476 357 489 q 383 439 372 463 q 414 300 407 389 q 416 219 415 272 q 417 156 417 165 q 419 81 418 138 q 422 24 419 31 q 425 15 424 19 q 425 17 425 17 q 436 28 428 21 q 447 40 444 36 q 472 100 457 58 q 507 243 497 168 m 133 610 q 120 597 133 601 q 94 597 107 593 q 82 610 82 601 q 116 654 83 639 q 178 667 149 669 q 229 642 203 665 q 244 628 240 631 q 263 629 249 626 q 294 653 272 632 q 333 656 307 665 q 339 639 350 649 q 233 597 283 588 q 189 622 213 601 q 184 627 188 624 q 179 632 181 631 q 174 635 178 633 q 167 636 169 638 q 158 635 164 635 q 133 610 135 628 z "},"":{"ha":407,"x_min":-43,"x_max":463,"o":"m 410 261 q 444 260 424 271 q 444 242 461 251 q 331 196 393 208 q 293 85 319 136 q 273 50 283 65 q 249 19 263 35 q 219 -8 235 3 q 185 -25 204 -18 q 144 -32 165 -32 q 49 4 88 -32 q -7 99 11 40 q 0 319 -33 183 q -14 475 -43 396 q 42 553 3 522 q 129 586 81 585 q 225 559 183 589 q 290 481 267 529 q 324 383 313 433 q 338 283 336 333 q 335 229 338 257 q 410 261 375 240 m 189 22 q 274 189 253 81 q 111 219 185 183 q 101 111 101 163 q 114 28 100 57 q 150 0 129 -3 q 189 22 167 1 m 279 219 q 279 319 285 269 q 236 474 271 406 q 176 542 213 517 q 101 544 140 567 q 41 463 56 517 q 44 360 26 408 q 86 361 67 364 q 122 345 107 357 q 132 314 138 333 q 118 258 125 286 q 279 219 186 211 m 53 628 q 46 638 46 632 q 53 647 46 643 q 260 724 154 696 q 294 718 285 731 q 297 706 300 713 q 286 699 293 700 q 88 628 181 672 q 53 628 67 618 z "},"":{"ha":458,"x_min":64,"x_max":393,"o":"m 359 427 q 370 425 359 427 q 387 406 381 422 q 379 380 393 390 q 347 367 365 369 q 214 358 278 358 q 86 371 128 357 q 71 392 65 379 q 96 410 76 406 q 130 415 113 414 q 175 418 147 417 q 210 419 203 419 q 318 429 258 422 q 359 427 338 432 m 201 467 q 190 483 189 475 q 211 529 193 500 q 275 550 228 556 q 307 536 296 547 q 311 513 319 524 q 299 492 308 508 q 283 469 290 476 q 253 456 275 458 q 226 456 240 454 q 201 467 213 458 m 235 317 q 274 292 269 314 q 265 239 276 261 q 214 219 254 217 q 174 246 178 222 q 176 274 172 258 q 185 299 179 288 q 235 317 196 319 z "},"":{"ha":407,"x_min":-43,"x_max":463,"o":"m 410 261 q 444 260 424 271 q 444 242 461 251 q 331 196 393 208 q 293 85 319 136 q 165 -31 240 -17 q 140 -131 154 -81 q 124 -142 139 -139 q 96 -139 108 -144 q 86 -121 83 -133 q 110 -28 97 -79 q -7 99 26 -8 q 0 319 -33 183 q -14 475 -43 396 q 17 531 -4 506 q 68 570 39 556 q 129 586 97 585 q 239 547 192 589 q 269 689 257 647 q 286 700 272 697 q 311 697 300 703 q 319 682 322 692 q 282 494 311 651 q 338 283 335 407 q 335 229 338 257 q 410 261 375 240 m 121 17 q 165 199 144 111 q 111 218 136 207 q 101 111 101 163 q 114 28 100 57 q 121 17 118 21 m 118 258 q 172 232 143 242 q 185 290 183 282 q 228 489 201 363 q 170 545 203 526 q 101 544 138 564 q 41 463 56 517 q 44 360 26 408 q 86 361 67 364 q 122 345 107 357 q 132 314 138 333 q 118 258 125 286 m 189 22 q 274 189 253 81 q 218 189 246 186 q 176 11 199 103 q 189 22 182 15 m 279 219 q 279 319 285 269 q 264 401 275 361 q 236 271 253 343 q 225 219 236 271 q 279 219 251 217 z "},"":{"ha":536,"x_min":-28,"x_max":579,"o":"m 532 260 q 545 269 533 267 q 567 267 557 271 q 576 257 578 264 q 497 39 550 118 q 425 -7 467 -6 q 333 43 368 -8 q 289 281 282 119 q 290 308 290 293 q 288 299 290 307 q 283 288 285 292 q 196 74 228 129 q 126 21 169 25 q 28 57 71 14 q -17 144 -7 93 q -26 265 -28 196 q 4 510 -25 376 q 72 549 14 549 q 119 539 94 549 q 140 510 143 529 q 129 425 138 485 q 115 322 121 365 q 108 236 110 278 q 113 115 104 158 q 129 67 118 82 q 131 64 129 67 q 144 82 144 82 q 165 120 154 99 q 182 158 175 142 q 199 199 189 174 q 213 238 208 225 q 228 280 218 250 q 242 318 239 310 q 288 449 261 371 q 294 472 289 454 q 303 498 300 489 q 313 520 307 507 q 328 542 319 533 q 397 572 343 572 q 426 569 410 572 q 458 556 443 565 q 469 531 472 546 q 458 465 465 506 q 447 395 451 424 q 437 330 442 367 q 429 261 432 293 q 421 131 421 172 q 426 69 421 94 q 436 33 433 39 q 490 129 460 51 q 532 260 511 182 m 179 658 q 147 664 164 653 q 150 681 136 672 q 367 758 236 736 q 406 746 399 763 q 383 724 411 729 q 179 658 308 708 z "},"":{"ha":1036,"x_min":-40,"x_max":968,"o":"m 918 314 q 932 327 919 324 q 956 327 944 331 q 967 314 968 324 q 888 38 936 129 q 708 -58 829 -72 q 601 -18 649 -53 q 531 72 553 17 q 517 210 507 140 q 565 344 528 281 q 503 418 531 374 q 483 460 492 438 q 478 392 481 425 q 442 224 467 307 q 379 74 414 126 q 259 -19 332 4 q 111 -1 186 -43 q -10 299 -11 75 q 15 496 -10 389 q -1 525 6 513 q -39 677 -37 597 q -1 829 -40 757 q 105 927 36 897 q 249 938 174 957 q 474 646 431 894 q 474 649 474 646 q 475 653 474 651 q 543 808 494 735 q 654 929 597 890 q 806 958 739 988 q 879 847 864 933 q 889 760 888 804 q 884 659 890 715 q 874 574 878 603 q 858 479 869 546 q 845 467 857 471 q 822 468 833 464 q 813 479 811 472 q 827 569 822 538 q 837 651 832 601 q 840 745 842 701 q 833 831 839 789 q 826 860 831 843 q 810 899 821 878 q 788 926 800 919 q 758 922 775 932 q 690 822 729 899 q 615 569 617 679 q 629 479 615 518 q 646 444 636 461 q 656 429 649 440 q 656 428 656 429 q 657 428 657 428 q 661 424 660 425 q 696 389 669 413 q 699 386 697 388 q 703 383 701 385 q 722 365 715 378 q 722 343 729 353 q 675 249 693 299 q 653 142 657 199 q 675 40 650 86 q 703 4 685 21 q 742 -14 722 -12 q 835 46 786 -18 q 886 167 861 82 q 918 314 900 214 m 343 163 q 374 254 361 207 q 249 281 317 246 q 131 360 186 314 q 124 308 126 332 q 119 144 114 231 q 176 25 126 58 q 278 53 222 -4 q 343 163 315 90 m 406 447 q 375 725 414 606 q 315 838 354 789 q 217 899 275 886 q 117 872 161 911 q 51 775 74 833 q 40 589 18 688 q 64 661 50 624 q 99 688 69 682 q 153 690 128 694 q 180 683 168 689 q 199 666 192 678 q 203 640 207 654 q 142 410 147 433 q 256 319 189 363 q 349 281 315 282 q 385 294 368 279 q 406 447 401 369 z "},"":{"ha":710,"x_min":-44,"x_max":757,"o":"m 707 263 q 739 271 714 276 q 751 256 757 267 q 668 99 719 172 q 644 67 654 79 q 621 40 635 54 q 591 16 607 25 q 556 1 575 7 q 410 24 476 -24 q 328 154 343 72 q 325 174 326 164 q 299 95 315 132 q 258 27 282 58 q 200 -20 235 -4 q 125 -31 165 -36 q -8 107 25 -17 q 0 319 -32 190 q -18 364 -12 342 q 14 526 -43 456 q 91 580 44 565 q 185 578 138 594 q 288 488 251 556 q 333 335 324 421 q 394 458 353 407 q 522 533 446 519 q 591 528 557 539 q 629 485 625 517 q 613 428 632 457 q 567 388 593 399 q 494 388 536 376 q 463 200 463 300 q 464 169 463 186 q 469 126 465 151 q 481 82 474 100 q 499 47 488 64 q 526 31 510 31 q 564 43 542 31 q 649 146 600 68 q 707 263 683 200 m 522 446 q 507 415 514 432 q 543 414 529 407 q 559 426 551 417 q 571 447 567 436 q 576 467 575 458 q 574 484 576 474 q 567 494 572 494 q 550 483 563 496 q 522 446 535 469 m 258 136 q 272 186 267 160 q 114 217 196 179 q 113 217 114 217 q 110 218 111 218 q 100 125 101 169 q 100 99 100 113 q 103 67 100 85 q 110 35 106 49 q 124 11 115 22 q 144 1 132 0 q 174 11 157 1 q 258 136 224 42 m 278 218 q 282 283 282 250 q 256 428 281 358 q 157 551 218 532 q 110 548 133 558 q 72 518 88 538 q 47 476 57 499 q 42 360 24 419 q 85 361 65 364 q 122 345 107 357 q 132 314 138 333 q 118 257 124 286 q 278 218 194 203 z "},"":{"ha":1139,"x_min":67,"x_max":1081,"o":"m 706 985 q 742 966 725 981 q 749 935 760 951 q 613 722 661 806 q 411 318 517 558 q 365 210 394 281 q 324 111 336 139 q 307 70 321 104 q 288 24 293 36 q 270 -13 282 13 q 247 -58 258 -39 q 224 -96 236 -76 q 175 -114 210 -117 q 149 -106 163 -112 q 136 -89 135 -100 q 201 157 143 -7 q 389 606 293 408 q 614 968 485 804 q 657 988 626 983 q 706 985 688 992 m 200 522 q 88 574 122 521 q 70 632 72 599 q 79 692 68 665 q 118 715 88 711 q 199 749 153 740 q 299 728 257 757 q 336 642 342 700 q 292 558 332 590 q 200 522 253 525 m 185 685 q 185 647 186 674 q 186 610 183 621 q 204 578 193 581 q 242 597 217 574 q 269 640 261 615 q 264 699 282 678 q 203 706 244 721 q 181 694 192 701 q 185 685 183 689 m 621 389 q 711 357 676 389 q 732 271 746 325 q 675 197 719 224 q 579 171 631 169 q 482 219 508 172 q 486 335 460 260 q 518 356 492 350 q 525 360 521 358 q 621 389 569 388 m 643 264 q 656 310 657 282 q 631 346 654 339 q 593 343 618 350 q 586 340 592 343 q 590 318 594 331 q 578 256 576 274 q 590 225 579 229 q 619 236 603 221 q 643 264 636 251 m 954 389 q 1045 357 1010 389 q 1065 271 1081 325 q 1008 197 1053 224 q 913 171 964 169 q 815 219 842 172 q 821 335 793 260 q 851 356 826 350 q 858 360 856 358 q 954 389 903 388 m 978 264 q 990 310 990 282 q 965 346 989 339 q 928 343 953 350 q 919 340 926 343 q 925 318 929 331 q 911 256 910 274 q 925 225 914 229 q 953 236 936 221 q 978 264 969 251 z "},"":{"ha":664,"x_min":63,"x_max":596,"o":"m 549 288 q 562 299 550 296 q 585 299 574 303 q 594 288 596 296 q 521 79 578 175 q 367 -12 461 -21 q 150 289 193 3 q 142 364 144 325 q 106 350 121 357 q 72 357 88 343 q 81 375 63 367 q 140 397 108 386 q 139 447 139 422 q 106 442 121 444 q 79 451 86 438 q 90 467 74 461 l 93 468 q 140 478 117 472 q 172 704 144 592 q 257 878 197 811 q 343 936 294 919 q 444 932 392 953 q 519 785 504 903 q 521 568 529 707 q 507 555 519 558 q 481 555 494 551 q 468 568 468 558 q 464 765 474 704 q 440 853 456 822 q 426 873 436 863 q 413 886 415 883 q 411 888 413 888 q 407 883 408 886 q 339 761 372 849 q 303 621 317 703 q 289 500 293 560 q 290 500 289 500 q 322 490 318 503 q 321 481 324 485 q 313 474 318 476 q 304 472 308 472 q 286 469 300 471 q 285 433 285 450 q 300 435 299 435 q 332 425 328 439 q 328 412 335 417 q 314 406 322 407 q 285 401 300 404 q 290 283 285 340 q 321 125 300 193 q 396 28 349 42 q 425 31 411 24 q 453 58 439 39 q 474 89 467 76 q 490 122 481 101 q 494 129 493 126 q 549 288 532 203 m 410 890 z "},"":{"ha":746,"x_min":-335,"x_max":1453,"o":"m 424 794 q 568 953 486 917 q 678 957 629 981 q 717 879 719 936 q 714 856 717 869 q 988 907 889 897 q 1257 900 1142 924 q 1322 881 1290 893 q 1385 850 1354 869 q 1434 800 1417 831 q 1450 733 1451 769 q 1443 724 1449 728 q 1430 719 1438 721 q 1415 719 1422 718 q 1402 724 1407 721 q 1397 733 1397 728 q 1371 808 1401 775 q 1297 857 1340 840 q 1146 883 1236 879 q 822 850 1008 890 q 707 825 781 842 q 624 665 690 769 q 503 500 582 600 q 500 224 486 361 q 543 38 511 100 q 586 4 563 0 q 629 29 604 6 q 740 250 694 89 q 756 259 743 257 q 778 257 768 261 q 788 246 789 253 q 728 90 767 157 q 613 -19 678 0 q 519 -21 565 -33 q 442 28 474 -8 q 381 132 403 69 q 358 90 369 110 q 243 -19 308 0 q 151 -21 197 -33 q 72 28 104 -8 q -18 254 3 101 q -18 519 -35 379 q 19 707 -7 626 q -7 706 6 707 q -17 706 -10 706 q -65 702 -47 703 q -115 702 -82 701 q -170 706 -149 703 q -220 715 -192 708 q -268 733 -249 722 q -304 763 -287 744 q -331 806 -321 782 q -314 822 -335 818 q -286 813 -290 826 q -255 767 -275 785 q -205 742 -235 749 q -152 733 -175 735 q -94 731 -129 731 q 29 735 -37 729 q 43 768 36 753 q 199 953 107 913 q 308 957 261 981 q 347 879 350 936 q 318 775 346 832 q 424 794 371 783 m 215 829 q 189 754 201 796 q 265 767 229 760 q 297 879 297 831 q 276 925 296 921 q 256 907 268 926 q 215 829 236 879 m 247 735 q 181 725 213 729 q 160 649 171 693 q 146 582 153 617 q 211 676 185 633 q 247 735 238 717 m 260 29 q 360 210 319 83 q 351 254 356 231 q 350 519 335 379 q 410 763 367 664 q 303 743 349 751 q 254 665 288 717 q 133 500 213 600 q 131 224 117 361 q 174 38 142 100 q 217 4 193 0 q 260 29 235 6 m 581 676 q 654 813 639 767 q 572 794 608 803 q 529 649 551 739 q 515 582 522 617 q 581 676 554 633 m 625 907 q 585 829 606 879 q 585 828 585 829 q 583 826 585 826 q 663 844 617 833 q 667 879 667 863 q 646 925 665 921 q 625 907 636 926 z "}}}
